SplineFontDB: 3.2
FontName: SteMitest01-test01
FullName: SteMitest01 test01
FamilyName: SteMitest01
Weight: Light
Copyright: Created by Krzysztof (Stenografow) Smirnow, with FontForge 2.0 (https://www.stenografia.pl)
UComments: "PL: Font, kt+APMA-rego zadaniem jest umo+AXwA-liwienie tworzenia tekst+APMA-w przy pomocy stenograficznego pisma SteMi: +AAoA-https://www.stenografia.pl/blog/2013-02-28_kurs-stemi-lekcja-01/+AAoA-EN:+AKAA Font whose task is to enable the creation of texts using the SteMi shorthand script (Polish basically, but)"
FontLog: "v. 2.0 began in 2023+AAoA-v. 1.0 postponed in 2013+AAoA-v. 1.0 began in 2012"
Version: 002.000
ItalicAngle: 0
UnderlinePosition: -298
UnderlineWidth: 148
Ascent: 2000
Descent: 1000
InvalidEm: 0
sfntRevision: 0x00020000
LayerCount: 3
Layer: 0 1 "Warstwa t+AUIA-a" 1
Layer: 1 1 "Plan pierwszy" 1
Layer: 2 0 "Warstwa t+AUIA-a 2" 1
HasVMetrics: 1
XUID: [1021 102 369710040 9694235]
BaseHoriz: 0
StyleMap: 0x0040
FSType: 0
OS2Version: 4
OS2_WeightWidthSlopeOnly: 0
OS2_UseTypoMetrics: 1
CreationTime: 1379607424
ModificationTime: 1712671126
PfmFamily: 17
TTFWeight: 300
TTFWidth: 3
LineGap: 270
VLineGap: 270
Panose: 2 0 5 3 0 0 0 0 0 0
OS2TypoAscent: 2000
OS2TypoAOffset: 0
OS2TypoDescent: -1000
OS2TypoDOffset: 0
OS2TypoLinegap: 270
OS2WinAscent: 3557
OS2WinAOffset: 0
OS2WinDescent: 1092
OS2WinDOffset: 0
HheadAscent: 3557
HheadAOffset: 0
HheadDescent: -1092
HheadDOffset: 0
OS2SubXSize: 1950
OS2SubYSize: 2100
OS2SubXOff: 0
OS2SubYOff: 420
OS2SupXSize: 1950
OS2SupYSize: 2100
OS2SupXOff: 0
OS2SupYOff: 1440
OS2StrikeYSize: 149
OS2StrikeYPos: 776
OS2CapHeight: 3432
OS2XHeight: 1520
OS2FamilyClass: 2560
OS2Vendor: 'KsMi'
OS2CodePages: 00000001.00000000
OS2UnicodeRanges: 00000007.02000000.04000000.00000000
MarkAttachClasses: 1
DEI: 91125
TtTable: prep
PUSHW_1
 511
SCANCTRL
PUSHB_1
 1
SCANTYPE
SVTCA[y-axis]
MPPEM
PUSHB_1
 8
LT
IF
PUSHB_2
 1
 1
INSTCTRL
EIF
PUSHB_2
 70
 6
CALL
IF
POP
PUSHB_1
 16
EIF
MPPEM
PUSHB_1
 20
GT
IF
POP
PUSHB_1
 128
EIF

StartChar: .notdef
Encoding: 1114112 -1 0
Width: 1500
Flags: HW
LayerCount: 3
Fore
SplineSet
300 150 m 1
 1200 150 l 1
 1200 1183 l 1
 300 1183 l 1
 300 150 l 1
150 0 m 1
 150 1333 l 1
 1350 1333 l 1
 1350 0 l 1
 150 0 l 1
EndSplineSet
Validated: 1
EndChar

StartChar: quoteright
Encoding: 8217 8217 4
Width: 773
VWidth: 2048
GlyphClass: 2
Flags: HW
LayerCount: 3
Fore
SplineSet
309 2756 m 1
 561 2756 l 1
 561 2550 l 1
 365 2167 l 1
 211 2167 l 1
 309 2550 l 1
 309 2756 l 1
EndSplineSet
Validated: 1
EndChar

StartChar: quotesinglbase
Encoding: 8218 8218 5
Width: 773
VWidth: 2048
GlyphClass: 2
Flags: HW
LayerCount: 3
Fore
SplineSet
309 -254 m 1
 561 -254 l 1
 561 -460 l 1
 365 -843 l 1
 211 -843 l 1
 309 -460 l 1
 309 -254 l 1
EndSplineSet
Validated: 1
EndChar

StartChar: quotedblright
Encoding: 8221 8221 6
Width: 1233
VWidth: 2048
GlyphClass: 2
Flags: HW
LayerCount: 3
Fore
SplineSet
309 2726 m 1
 561 2726 l 1
 561 2520 l 1
 365 2137 l 1
 211 2137 l 1
 309 2520 l 1
 309 2726 l 1
768 2726 m 1
 1020 2726 l 1
 1020 2520 l 1
 823 2137 l 1
 670 2137 l 1
 768 2520 l 1
 768 2726 l 1
EndSplineSet
Validated: 1
EndChar

StartChar: quotedblbase
Encoding: 8222 8222 7
Width: 1233
VWidth: 2048
GlyphClass: 2
Flags: HW
LayerCount: 3
Fore
SplineSet
309 -244 m 1
 561 -244 l 1
 561 -450 l 1
 365 -833 l 1
 211 -833 l 1
 309 -450 l 1
 309 -244 l 1
768 -244 m 1
 1020 -244 l 1
 1020 -450 l 1
 823 -833 l 1
 670 -833 l 1
 768 -450 l 1
 768 -244 l 1
EndSplineSet
Validated: 1
EndChar

StartChar: stemK
Encoding: 57352 57352 10
Width: 120
VWidth: 0
GlyphClass: 2
Flags: HW
LayerCount: 3
Fore
SplineSet
0 60 m 1025
80 60 m 25,0,-1
 60 80 l 25,2,-1
 60 40 l 25,3,-1
 40 60 l 25,4,-1
 80 60 l 1049,5,-1
80 1649 m 25,0,-1
 60 1669 l 25,2,-1
 60 1629 l 25,3,-1
 40 1649 l 25,4,-1
 80 1649 l 1049,5,-1
60 1709 m 0
 120.000001825 1709 120.000001825 1709 120 1649 c 0
 120 1648.75931509 120 1648.75931509 119.998905429 1648.51953131 c 0
 119.998905429 1648.26032112 119.998905429 1648.26032112 120 1648 c 2
 120 60 l 2
 120 0 120 0 60 0 c 0
 0 0 0 0 0 60 c 2
 0 1648 l 2
 0 1648.26032112 0 1648.26032112 0.00109457119569 1648.51953131 c 0
 0.00109457119569 1648.75931509 0.00109457119569 1648.75931509 0 1649 c 0
 0 1709 0 1709 60 1709 c 0
EndSplineSet
Validated: 524291
EndChar

StartChar: gorP.brzh
Encoding: 57372 57372 11
Width: 461
VWidth: 3070
GlyphClass: 2
Flags: HW
LayerCount: 3
Back
SplineSet
232.21875 1326.22265625 m 4,0,1
 282.319335938 1326.203125 282.319335938 1326.203125 310.352539062 1359.96972656 c 4,2,3
 337.319335938 1392.203125 337.319335938 1392.203125 337.477539062 1439.48632812 c 4,3,4
 337.319335938 1470.203125 337.319335938 1470.203125 310.352539062 1515.48144531 c 4,5,6
 281.319335938 1563.203125 281.319335938 1563.203125 232.21875 1562.84765625 c 4,6,7
 185.319335938 1563.203125 185.319335938 1563.203125 153.319335938 1519.703125 c 132,-1,9
 121.319335938 1476.203125 121.319335938 1476.203125 121.319335938 1435.703125 c 132,-1,10
 121.319335938 1395.203125 121.319335938 1395.203125 152.819335938 1360.703125 c 132,-1,12
 184.319335938 1326.203125 184.319335938 1326.203125 232.21875 1326.22265625 c 4,0,1
229.791015625 1687.15429688 m 4,12,13
 310.319335938 1687.203125 310.319335938 1687.203125 378.770507812 1624 c 4,14,15
 412.319335938 1593.203125 412.319335938 1593.203125 434.233398438 1545.46191406 c 4,16,17
 455.319335938 1497.203125 455.319335938 1497.203125 455.690429688 1445.203125 c 4,17,18
 455.319335938 1395.203125 455.319335938 1395.203125 432.614257812 1344.61132812 c 4,19,20
 409.319335938 1293.203125 409.319335938 1293.203125 379.581054688 1269.40625 c 4,20,21
 340.319335938 1238.203125 340.319335938 1238.203125 307.11328125 1222.04101562 c 4,22,23
 274.319335938 1206.203125 274.319335938 1206.203125 229.791015625 1206.25195312 c 132,-1,23
 185.319335938 1206.203125 185.319335938 1206.203125 151.251953125 1222.4453125 c 4,24,25
 117.319335938 1238.203125 117.319335938 1238.203125 80 1269.40625 c 4,25,26
 47.3193359375 1297.203125 47.3193359375 1297.203125 26.966796875 1345.42089844 c 4,27,28
 6.3193359375 1394.203125 6.3193359375 1394.203125 6.3193359375 1445.203125 c 4,28,29
 6.3193359375 1557.203125 6.3193359375 1557.203125 80 1624 c 4,30,31
 150.319335938 1687.203125 150.319335938 1687.203125 229.791015625 1687.15429688 c 4,12,13
EndSplineSet
Fore
SplineSet
80 919 m 25,0,-1
 60 939 l 25,2,-1
 60 899 l 25,3,-1
 40 919 l 25,4,-1
 80 919 l 1049,5,-1
80 839 m 25,0,-1
 60 859 l 25,2,-1
 60 819 l 25,3,-1
 40 839 l 25,4,-1
 80 839 l 1049,5,-1
120 1003 m 1
 332 1189 332 1189 332 1437 c 0
 332 1643 332 1643 234 1643 c 0
 120 1643 120 1643 120 1437 c 2
 120 1003 l 1
60 779 m 1
 4.56090247839e-08 779 4.56090247839e-08 779 0 836 c 2
 0 1437 l 2
 0 1762 0 1762 234.5 1762 c 0
 459.004415011 1762 459.004415011 1762 459.004415011 1440.85461164 c 0,0,0
 459.004415011 1177.9330956 459.004415011 1177.9330956 120 863 c 1
 120 836 l 2
 120 779 120 779 60 779 c 1
EndSplineSet
Validated: 524291
EndChar

StartChar: stemI.krt
Encoding: 57357 57357 12
Width: 121
VWidth: 0
GlyphClass: 2
Flags: HW
LayerCount: 3
Fore
SplineSet
1 60 m 1025
80 60 m 25,0,-1
 60 80 l 25,2,-1
 60 40 l 25,3,-1
 40 60 l 25,4,-1
 80 60 l 1049,5,-1
80 282 m 25,0,-1
 60 302 l 25,2,-1
 60 262 l 25,3,-1
 40 282 l 25,4,-1
 80 282 l 1049,5,-1
0 282 m 0
 0 341.999996475 0 341.999996475 60 342 c 0
 60.2387173872 342 60.2387173872 342 60.4765625461 341.998835646 c 0
 60.7377079607 341.998835646 60.7377079607 341.998835646 61 342 c 0
 121 342 121 342 121 281 c 2
 121 60 l 2
 121 0 121 0 61 0 c 0
 60.7455541818 0 60.7455541818 0 60.492187393 0.0010824790708 c 0
 60.2465992038 0.0010824790708 60.2465992038 0.0010824790708 60 0 c 0
 0 0 0 0 0 60 c 1
 0 67 0 67 1 73.25 c 1
 1 268.28434649 l 1
 0 274.73123476 0 274.73123476 0 282 c 0
EndSplineSet
Validated: 524291
EndChar

StartChar: stemKRT
Encoding: 57358 57358 13
Width: 120
VWidth: 0
GlyphClass: 2
Flags: HW
LayerCount: 3
Fore
SplineSet
0 60 m 1029,40,-1
59 200 m 29,16,-1
 59 160 l 29,17,-1
 39 180 l 29,18,-1
 79 180 l 1053,19,-1
59 80 m 29,0,-1
 59 40 l 29,1,-1
 39 60 l 29,2,-1
 79 60 l 1053,3,-1
-1 180 m 0
 -1 239.999996475 -1 239.999996475 59 240 c 0
 59.2387173871 240 59.2387173871 240 59.4765625457 239.998835646 c 0
 59.7377079605 239.998835646 59.7377079605 239.998835646 60 240 c 0
 120 240 120 240 120 179 c 2
 120 60 l 2
 120 0 120 0 60 0 c 0
 59.7455541818 0 59.7455541818 0 59.492187393 0.0010824790708 c 0
 59.2465992038 0.0010824790708 59.2465992038 0.0010824790708 59 0 c 0
 -1 0 -1 0 -1 60 c 1
 -1 67 -1 67 0 73.25 c 1
 0 166.28434649 l 1
 -1 172.73123476 -1 172.73123476 -1 180 c 0
EndSplineSet
Validated: 524291
EndChar

StartChar: gorBbrzh
Encoding: 57376 57376 14
Width: 468
VWidth: 3070
GlyphClass: 2
Flags: HW
LayerCount: 3
Fore
SplineSet
80 60 m 25,0,-1
 60 80 l 25,2,-1
 60 40 l 25,3,-1
 40 60 l 25,4,-1
 80 60 l 1049,5,-1
80 139 m 25,0,-1
 60 159 l 25,2,-1
 60 119 l 25,3,-1
 40 139 l 25,4,-1
 80 139 l 1049,5,-1
120 223 m 1
 205 300 205 300 267 392 c 0
 334.5437376 494.15990312 334.5437376 494.15990312 334.5437376 553.104066061 c 0,0,0
 334.5437376 633.501030928 334.5437376 633.501030928 208.887866006 633.501030928 c 0,0,0
 208.437902706 633.501030928 208.437902706 633.501030928 207.986328125 633.5 c 0
 120 633 120 633 120 427 c 2
 120 223 l 1
120 83 m 1
 120 67.3833948613 120 67.3833948613 120.00715047 63.0052539615 c 0
 120.014300941 58.6271130616 120.014300941 58.6271130616 119.991210938 56 c 0
 120 0 120 0 60 0 c 0
 0 0 0 0 0 56 c 2
 0 423 l 2
 0 754.003003003 0 754.003003003 206.7526265 754.003003003 c 0,0,0
 207.375375375 754.003003003 207.375375375 754.003003003 208 754 c 0
 464.805555556 753.402777778 464.805555556 753.402777778 464.805555556 603.002314815 c 0,0,0
 464.805555556 501.569444444 464.805555556 501.569444444 348 332 c 0
 251 194 251 194 120 83 c 1
EndSplineSet
Validated: 524291
EndChar

StartChar: stemK.krt
Encoding: 57353 57353 15
Width: 120
VWidth: 0
GlyphClass: 2
Flags: HW
LayerCount: 3
Fore
SplineSet
0 60 m 1025
80 60 m 25,0,-1
 60 80 l 25,2,-1
 60 40 l 25,3,-1
 40 60 l 25,4,-1
 80 60 l 1049,5,-1
79 1249 m 25,0,-1
 59 1269 l 25,2,-1
 59 1229 l 25,3,-1
 39 1249 l 25,4,-1
 79 1249 l 1049,5,-1
-1 1249 m 0
 -1 1308.99999648 -1 1308.99999648 59 1309 c 0
 59.2387173876 1309 59.2387173876 1309 59.4765625466 1308.99883565 c 0
 59.737707961 1308.99883565 59.737707961 1308.99883565 60 1309 c 0
 120 1309 120 1309 120 1248 c 2
 120 60 l 2
 120 0 120 0 60 0 c 0
 0 0 0 0 0 60 c 2
 0 1235.28434649 l 1
 -1 1241.73123476 -1 1241.73123476 -1 1249 c 0
EndSplineSet
Validated: 524291
EndChar

StartChar: stemG
Encoding: 57354 57354 16
Width: 120
VWidth: 0
GlyphClass: 2
Flags: HW
LayerCount: 3
Fore
SplineSet
0 60 m 1029
80 60 m 25,0,-1
 60 80 l 25,2,-1
 60 40 l 25,3,-1
 40 60 l 25,4,-1
 80 60 l 1049,5,-1
80 900 m 25,0,-1
 60 920 l 25,2,-1
 60 880 l 25,3,-1
 40 900 l 25,4,-1
 80 900 l 1049,5,-1
60 960 m 0
 120.000001825 960 120.000001825 960 120 900 c 0
 120 899.759315089 120 899.759315089 119.998905429 899.519531308 c 0
 119.998905429 899.260321118 119.998905429 899.260321118 120 899 c 2
 120 60 l 2
 120 0 120 0 60 0 c 0
 0 0 0 0 0 60 c 2
 0 899 l 2
 0 899.260321118 0 899.260321118 0.00109457119532 899.519531309 c 0
 0.00109457119532 899.75931509 0.00109457119532 899.75931509 0 900 c 0
 0 960 0 960 60 960 c 0
EndSplineSet
Validated: 524291
EndChar

StartChar: gorST.brzh
Encoding: 57374 57374 17
Width: 528
VWidth: 3070
GlyphClass: 2
Flags: HW
LayerCount: 3
Back
SplineSet
289.913085938 1744.92382812 m 4,0,1
 388.279296875 1745.37011719 388.279296875 1745.37011719 480 1658.73925781 c 4,2,3
 582.279296875 1562.37011719 582.279296875 1562.37011719 582.740234375 1404.37011719 c 4,4,5
 583.279296875 1248.37011719 583.279296875 1248.37011719 480 1156 c 4,6,7
 385.279296875 1070.37011719 385.279296875 1070.37011719 290.913085938 1069.81640625 c 4,8,9
 199.279296875 1069.37011719 199.279296875 1069.37011719 100.625976562 1156 c 4,10,11
 0.279296875 1244.37011719 0.279296875 1244.37011719 0.279296875 1402.37011719 c 4,12,13
 0.279296875 1568.37011719 0.279296875 1568.37011719 100.625976562 1658.73925781 c 4,14,15
 196.279296875 1744.37011719 196.279296875 1744.37011719 289.913085938 1744.92382812 c 4,0,1
291.903320312 1195.87011719 m 4,16,17
 367.279296875 1196.37011719 367.279296875 1196.37011719 415.928710938 1271.15917969 c 4,18,19
 460.279296875 1339.37011719 460.279296875 1339.37011719 458.704101562 1404.70214844 c 4,20,21
 456.279296875 1491.37011719 456.279296875 1491.37011719 423.279296875 1543.37011719 c 4,22,23
 376.279296875 1619.37011719 376.279296875 1619.37011719 290.903320312 1619.65722656 c 4,24,25
 209.279296875 1619.37011719 209.279296875 1619.37011719 165.279296875 1543.37011719 c 4,26,27
 121.279296875 1466.37011719 121.279296875 1466.37011719 122.103515625 1402.15820312 c 4,28,29
 122.279296875 1333.37011719 122.279296875 1333.37011719 164.428710938 1270.15917969 c 4,30,31
 214.279296875 1195.37011719 214.279296875 1195.37011719 291.903320312 1195.87011719 c 4,16,17
EndSplineSet
Refer: 46 57346 S 1 0 0 1 394.279 1157.37 2
Refer: 46 57346 S 1 0 0 1 0.279297 1341.37 2
Refer: 46 57346 S 1 0 0 1 251.279 1072.37 2
Refer: 46 57346 S 1 0 0 1 210.913 1071.82 2
Refer: 46 57346 S 1 0 0 1 462.279 1341.37 2
Refer: 46 57346 S 1 0 0 1 27.2793 1473.37 2
Refer: 46 57346 S 1 0 0 1 430.279 1210.37 2
Refer: 46 57346 S 1 0 0 1 65.2793 1537.37 2
Refer: 46 57346 S 1 0 0 1 250.279 1622.37 2
Refer: 46 57346 S 1 0 0 1 215.279 1622.37 2
Fore
SplineSet
70.3779296875 52.3193359375 m 25,0,-1
 63.0576171875 79.6396484375 l 25,2,-1
 43.0576171875 44.9990234375 l 25,3,-1
 35.7373046875 72.3193359375 l 25,4,-1
 70.3779296875 52.3193359375 l 1049,5,-1
136.806640625 -175.741210938 m 25,0,-1
 131.89453125 -147.88671875 l 25,2,-1
 108.952148438 -180.65234375 l 25,3,-1
 104.040039062 -152.797851562 l 25,4,-1
 136.806640625 -175.741210938 l 1049,5,-1
99.07421875 124.665039062 m 1
 284.325195312 214.587890625 284.325195312 214.587890625 348.157226562 396.714355469 c 0
 383.084287878 496.368746536 383.084287878 496.368746536 383.084287878 554.370326191 c 0,0,0
 383.084287878 602.371327504 383.084287878 602.371327504 359.163085938 621.844726562 c 0
 310.609832741 661.174655955 310.609832741 661.174655955 266.639550604 661.174655955 c 0,0,0
 196.697613791 661.174655955 196.697613791 661.174655955 138.3515625 561.661621094 c 0
 78.4610828706 459.514461938 78.4610828706 459.514461938 78.4610828706 312.541764873 c 0,0,0
 78.4610828706 226.317440238 78.4610828706 226.317440238 99.07421875 124.665039062 c 1
179.4921875 -140.9296875 m 1
 183.035230558 -153.121531836 183.035230558 -153.121531836 183.035230558 -164.04926113 c 0,0,0
 183.035230558 -201.954927432 183.035230558 -201.954927432 140.404296875 -224.650390625 c 1
 130.163862602 -227.256313658 130.163862602 -227.256313658 120.864368086 -227.256313658 c 0,0,0
 81.0537987277 -227.256313658 81.0537987277 -227.256313658 58.4873046875 -179.499023438 c 1
 -40.9876407786 71.4108438871 -40.9876407786 71.4108438871 -40.9876407786 282.729850089 c 0,0,0
 -40.9876407786 469.007552953 -40.9876407786 469.007552953 36.30859375 624.521484375 c 1
 134.216326385 776.429504071 134.216326385 776.429504071 259.594200265 776.429504071 c 0,0,0
 334.006774672 776.429504071 334.006774672 776.429504071 418.095703125 722.919921875 c 0
 513.10066895 662.418679038 513.10066895 662.418679038 513.10066895 546.056702248 c 0,0,0
 513.10066895 457.410788088 513.10066895 457.410788088 457.963867188 336.345703125 c 0
 353.325195312 106.587890625 353.325195312 106.587890625 120 0 c 1
 163.325195312 -106.412109375 163.325195312 -106.412109375 179.4921875 -140.9296875 c 1
EndSplineSet
Validated: 524323
EndChar

StartChar: luD1
Encoding: 57445 57445 18
Width: 360
VWidth: 0
GlyphClass: 2
Flags: HW
LayerCount: 3
Fore
SplineSet
80 526 m 25,0,-1
 60 546 l 25,2,-1
 60 506 l 25,3,-1
 40 526 l 25,4,-1
 80 526 l 1049,5,-1
320 60 m 25,0,-1
 300 80 l 25,2,-1
 300 40 l 25,3,-1
 280 60 l 25,4,-1
 320 60 l 1049,5,-1
300 0 m 0
 240 0 240 0 240 60 c 0
 240 335 240 335 28 472 c 1
 28.2011714138 472.348058478 l 1
 0 486.178235583 0 486.178235583 0 526 c 0
 0 586 0 586 60 586 c 0
 77.4813673799 586 77.4813673799 586 90.2852112067 579.763301929 c 1
 91 581 l 1
 360 403 360 403 360 60 c 0
 360 0 360 0 300 0 c 0
EndSplineSet
Validated: 524291
EndChar

StartChar: luD2
Encoding: 57446 57446 19
Width: 360
VWidth: 0
GlyphClass: 2
Flags: HW
LayerCount: 3
Fore
SplineSet
40 526 m 25,0,-1
 60 506 l 25,2,-1
 60 546 l 25,3,-1
 80 526 l 25,4,-1
 40 526 l 1049,5,-1
280 60 m 25,0,-1
 300 40 l 25,2,-1
 300 80 l 25,3,-1
 320 60 l 25,4,-1
 280 60 l 1049,5,-1
60 586 m 0
 120 586 120 586 120 526 c 0
 120 251 120 251 332 114 c 1
 331.798828586 113.651941522 l 1
 360 99.8217644173 360 99.8217644173 360 60 c 0
 360 0 360 0 300 0 c 0
 282.51863262 0 282.51863262 0 269.714788793 6.23669807087 c 1
 269 5 l 1
 0 183 0 183 0 526 c 0
 0 586 0 586 60 586 c 0
EndSplineSet
Validated: 524291
EndChar

StartChar: gorPS.brzh
Encoding: 57375 57375 20
Width: 600
VWidth: 3070
GlyphClass: 2
Flags: HW
LayerCount: 3
Fore
SplineSet
80 140 m 25,0,-1
 60 160 l 25,2,-1
 60 120 l 25,3,-1
 40 140 l 25,4,-1
 80 140 l 1049,5,-1
80 60 m 25,0,-1
 60 80 l 25,2,-1
 60 40 l 25,3,-1
 40 60 l 25,4,-1
 80 60 l 1049,5,-1
120 225 m 1
 456.005952381 408.093063872 456.005952381 408.093063872 456.005952381 808.160218254 c 0,0,0
 456.005952381 988 456.005952381 988 290 988 c 0
 123 988 123 988 123 806 c 0
 122 484 122 484 120 225 c 1
120 82 m 1
 120 55 l 2
 120 0 120 0 60 0 c 0
 0 0 0 0 0 55 c 2
 0 806 l 2
 0 1121 0 1121 291.5 1121 c 0
 584.002145923 1121 584.002145923 1121 584.002145923 804.889604708 c 0,0,0
 584.002145923 314.5 584.002145923 314.5 120 82 c 1
EndSplineSet
Validated: 524291
Layer: 2
SplineSet
290.287109375 1900.18457031 m 4
 355.864257812 1900.48242188 419.2265625 1871.75390625 480.374023438 1814 c 4
 548.560546875 1749.75390625 582.806640625 1664.96386719 583.114257812 1559.63085938 c 4
 583.473632812 1455.63085938 549.2265625 1372.84082031 480.374023438 1311.26074219 c 4
 417.2265625 1254.17382812 354.198242188 1225.44628906 291.287109375 1225.07714844 c 4
 230.198242188 1224.77929688 166.768554688 1253.5078125 101 1311.26074219 c 4
 34.1025390625 1370.17382812 0.6533203125 1452.29785156 0.6533203125 1557.63085938 c 4
 0.6533203125 1668.29785156 34.1025390625 1753.75390625 101 1814 c 4
 164.768554688 1871.08691406 227.864257812 1899.81542969 290.287109375 1900.18457031 c 4
292.27734375 1361.13085938 m 4
 346.528320312 1361.46386719 387.870117188 1383.22753906 416.302734375 1426.41992188 c 4
 445.870117188 1471.89355469 460.127929688 1516.40820312 459.078125 1559.96289062 c 4
 458.127929688 1600.40820312 444.653320312 1646.63085938 418.653320312 1698.63085938 c 4
 395.986328125 1744.63085938 353.528320312 1767.7265625 291.27734375 1767.91796875 c 4
 233.528320312 1767.7265625 191.653320312 1744.63085938 165.653320312 1698.63085938 c 4
 136.3203125 1647.29785156 121.927734375 1600.2265625 122.477539062 1557.41894531 c 4
 122.594726562 1514.89355469 136.703125 1470.89355469 164.802734375 1425.41992188 c 4
 191.370117188 1382.22753906 233.861328125 1360.79785156 292.27734375 1361.13085938 c 4
EndSplineSet
EndChar

StartChar: luT1
Encoding: 57450 57450 21
Width: 426
VWidth: 0
GlyphClass: 2
Flags: HW
LayerCount: 3
Fore
SplineSet
385.563476562 60 m 25,0,-1
 365.563476562 80 l 25,2,-1
 365.563476562 40 l 25,3,-1
 345.563476562 60 l 25,4,-1
 385.563476562 60 l 1049,5,-1
79.8837890625 826.999023438 m 25,0,-1
 72.5634765625 854.3203125 l 25,2,-1
 52.5634765625 819.678710938 l 25,3,-1
 45.2431640625 846.999023438 l 25,4,-1
 79.8837890625 826.999023438 l 1049,5,-1
365.563476562 0 m 0
 305.563476563 0 305.563476563 0 305.563476562 60 c 2
 305.563476562 80 l 1
 306.600952757 626.824709118 306.600952757 626.824709118 32.5634765625 785.038085938 c 1
 32.5634765625 785.038085938 l 1
 -0.412224395675 804.038376673 -0.412224395675 804.038376673 -0.412224395675 831.901052779 c 0,0,0
 -0.412224395675 847.975667958 -0.412224395675 847.975667958 10.5634079978 867.000039506 c 0
 28.1793924248 897.534319529 28.1793924248 897.534319529 57.2738015677 897.534319529 c 0,0,0
 77.7150296527 897.534319529 77.7150296527 897.534319529 103.822265625 882.461914062 c 1
 425.563476562 690 425.563476562 690 425.563476562 80 c 2
 425.563476562 60.0003130475 l 1
 425.563476562 60 l 2
 425.563476563 0 425.563476563 0 365.563476562 0 c 0
EndSplineSet
Validated: 524323
EndChar

StartChar: luT2
Encoding: 57451 57451 22
Width: 426
VWidth: 0
GlyphClass: 2
Flags: HW
LayerCount: 3
Fore
SplineSet
346.680664062 73.1982421875 m 25,0,-1
 354.000976562 45.876953125 l 25,2,-1
 374.000976562 80.5185546875 l 25,3,-1
 381.321289062 53.1982421875 l 25,4,-1
 346.680664062 73.1982421875 l 1049,5,-1
41.0009765625 840.197265625 m 25,0,-1
 61.0009765625 820.197265625 l 25,2,-1
 61.0009765625 860.197265625 l 25,3,-1
 81.0009765625 840.197265625 l 25,4,-1
 41.0009765625 840.197265625 l 1049,5,-1
61.0009765625 900.197265625 m 0
 121.000976562 900.197265625 121.000976562 900.197265625 121.000976562 840.197265625 c 2
 121.000976562 820.197265625 l 1
 119.998046875 291.581054688 119.998046875 291.581054688 381.876953125 122.159179688 c 0
 385.213612962 120.000540083 385.213612962 120.000540083 388.221404677 118.379992602 c 0
 426.856605797 97.5639974148 426.856605797 97.5639974148 426.856605797 67.574349521 c 0,0,0
 426.856605797 52.0121633576 426.856605797 52.0121633576 416.453053459 33.9797279578 c 0
 398.461492267 2.7950273499 398.461492267 2.7950273499 369.007586194 2.7950273499 c 0,0,0
 348.620642705 2.7950273499 348.620642705 2.7950273499 322.7421875 17.7353515625 c 1
 1.0009765625 210.197265625 1.0009765625 210.197265625 1.0009765625 820.197265625 c 0
 1.0009765625 830.197265625 1.0009765625 830.197265625 1.0009765625 840.197265625 c 0
 1.0009765625 900.197265625 1.0009765625 900.197265625 61.0009765625 900.197265625 c 0
EndSplineSet
Validated: 524323
EndChar

StartChar: luKL
Encoding: 57455 57455 23
Width: 463
VWidth: 0
GlyphClass: 2
Flags: HW
LayerCount: 3
Fore
SplineSet
267.015625 221 m 25,0,-1
 247.015625 241 l 25,2,-1
 247.015625 201 l 25,3,-1
 227.015625 221 l 25,4,-1
 267.015625 221 l 1049,5,-1
267.015625 60 m 25,0,-1
 247.015625 80 l 25,2,-1
 247.015625 40 l 25,3,-1
 227.015625 60 l 25,4,-1
 267.015625 60 l 1049,5,-1
307.0078125 39.5 m 2
 306.989936441 -27.9999999999 306.989936441 -27.9999999999 325.015625 -28 c 0
 345 -28 345 -28 352.5 -1 c 0
 355.588965629 10.1202762649 355.588965629 10.1202762649 355.588965629 21.7900398764 c 0,0,0
 355.588965629 68.0733432018 355.588965629 68.0733432018 307 123 c 1
 307.015625 69 l 1
 307.015625 60 l 2
 307.015625 59.6309064567 307.015625 59.6309064567 307.013046592 59.2639320473 c 2
 307.0078125 39.5 l 2
203.015625 376 m 1
 298.015625 374 l 1
 307.015625 293 307.015625 293 307.015625 283 c 1
 413 169 413 169 438.5 125 c 0
 463.168642561 82.4344991108 463.168642561 82.4344991108 463.168642561 -6.3390103687 c 0,0,0
 463.168642561 -9.33076467101 463.168642561 -9.33076467101 463.140625 -12.375 c 0
 463 -37 463 -37 427.015625 -86.5 c 0
 391 -136 391 -136 306.640625 -136.375 c 0
 306.020102266 -136.378215196 306.020102266 -136.378215196 305.402761751 -136.378215196 c 0,0,0
 185.640625 -136.378215196 185.640625 -136.378215196 185.640625 -15.375 c 2
 185.640625 98.375 l 1
 178 90 178 90 163.274414062 88.7626953125 c 0
 153.361235646 88.0908512423 153.361235646 88.0908512423 144.159932503 88.0908512423 c 0,0,0
 88.13329766 88.0908512423 88.13329766 88.0908512423 58.5 113 c 0
 0 162.173913043 0 162.173913043 0 232.586956522 c 0
 0 303 0 303 47 343.5 c 0
 87.0629765897 378.022352168 87.0629765897 378.022352168 143.120205131 378.022352168 c 0,0,0
 152.82668078 378.022352168 152.82668078 378.022352168 163.012695312 376.987304688 c 0
 173 376 173 376 187.015625 367 c 1
 203.015625 376 l 1
EndSplineSet
Validated: 524291
EndChar

StartChar: luSJ
Encoding: 57456 57456 24
Width: 459
VWidth: 0
GlyphClass: 2
Flags: HW
LayerCount: 3
Fore
SplineSet
243.76953125 54.80859375 m 25,0,-1
 231.81640625 80.4423828125 l 25,2,-1
 218.135742188 42.8544921875 l 25,3,-1
 206.181640625 68.4892578125 l 25,4,-1
 243.76953125 54.80859375 l 1049,5,-1
290.7890625 -134.702148438 m 25,0,-1
 278.834960938 -109.067382812 l 25,2,-1
 265.154296875 -146.655273438 l 25,3,-1
 253.201171875 -121.021484375 l 25,4,-1
 290.7890625 -134.702148438 l 1049,5,-1
168.59375 82.169921875 m 0
 183.639651652 123.505878663 183.639651652 123.505878663 217.960799073 123.505878663 c 0,0,0
 230.452278185 123.505878663 230.452278185 123.505878663 245.497070312 118.030273438 c 0
 288.409327327 102.412205951 288.409327327 102.412205951 288.409327327 69.4905479652 c 0,0,0
 288.409327327 51.5548062414 288.409327327 51.5548062414 275.672635453 28.4832241813 c 1
 248.421409319 -43.2052083466 248.421409319 -43.2052083466 176.132578333 -43.2052083466 c 0,0,0
 141.736302262 -43.2052083466 141.736302262 -43.2052083466 97.1434179226 -26.9747967547 c 0
 1.2752504728 7.91821004055 1.2752504728 7.91821004055 1.2752504728 99.4532118169 c 0,0,0
 1.2752504728 139.978030955 1.2752504728 139.978030955 20.0659179688 191.604980469 c 0
 62.7694476068 308.93199768 62.7694476068 308.93199768 174.561662131 308.93199768 c 0,0,0
 223.071695646 308.93199768 223.071695646 308.93199768 284.590820312 286.83984375 c 0
 459.144763914 223.307334183 459.144763914 223.307334183 459.144763914 85.3621937811 c 0,0,0
 459.144763914 38.3967438905 459.144763914 38.3967438905 438.911132812 -17.1943359375 c 0
 392.51212521 -144.677034494 392.51212521 -144.677034494 296.63671875 -185.782226562 c 0
 277.78515625 -193.819335938 277.78515625 -193.819335938 251.473632812 -184.243164062 c 0
 210.137027259 -169.19856049 210.137027259 -169.19856049 210.137027259 -134.878163871 c 0,0,0
 210.137027259 -122.386316073 210.137027259 -122.386316073 215.61328125 -107.340820312 c 0
 228.531234497 -71.8474066545 228.531234497 -71.8474066545 259.748099878 -67.2557785683 c 1
 259.454101562 -65.83203125 l 1
 304.224609375 -59.779296875 304.224609375 -59.779296875 334.0078125 22.0517578125 c 0
 343.772701187 48.8801734441 343.772701187 48.8801734441 343.772701187 71.9683378693 c 0,0,0
 343.772701187 145.047320315 343.772701187 145.047320315 245.942382812 180.654296875 c 0
 213.404673314 192.126483681 213.404673314 192.126483681 189.48515687 192.126483681 c 0,0,0
 144.764580115 192.126483681 144.764580115 192.126483681 130.168945312 152.025390625 c 0
 107.766601562 90.4755859375 107.766601562 90.4755859375 135.487304687 80.3857421875 c 0
 163.208007812 70.2958984375 163.208007812 70.2958984375 167.654296875 82.51171875 c 1
 168.59375 82.169921875 l 0
EndSplineSet
Validated: 524291
EndChar

StartChar: dolCZbrzh
Encoding: 57360 57360 25
Width: 468
VWidth: 3070
GlyphClass: 2
Flags: HW
LayerCount: 3
Fore
SplineSet
39.775390625 761 m 25,0,-1
 59.775390625 741 l 25,2,-1
 59.775390625 781 l 25,3,-1
 79.775390625 761 l 25,4,-1
 39.775390625 761 l 1049,5,-1
39.775390625 840 m 25,0,-1
 59.775390625 820 l 25,2,-1
 59.775390625 860 l 25,3,-1
 79.775390625 840 l 25,4,-1
 39.775390625 840 l 1049,5,-1
-0.224609375 677 m 1
 -85.224609375 600 -85.224609375 600 -147.224609375 508 c 0
 -214.768346975 405.84009688 -214.768346975 405.84009688 -214.768346975 346.895933939 c 0,0,0
 -214.768346975 266.498969072 -214.768346975 266.498969072 -89.112475381 266.498969072 c 0,0,0
 -88.6625120812 266.498969072 -88.6625120812 266.498969072 -88.2109375 266.5 c 0
 -0.224609375 267 -0.224609375 267 -0.224609375 473 c 2
 -0.224609375 677 l 1
-0.224609375 817 m 1
 -0.224609375 832.616605112 -0.224609375 832.616605112 -0.231759846036 836.994746064 c 0
 -0.238910317071 841.372887016 -0.238910317071 841.372887016 -0.2158203125 844 c 0
 -0.224609375 900 -0.224609375 900 59.775390625 900 c 0
 119.775390625 900 119.775390625 900 119.775390625 844 c 2
 119.775390625 477 l 2
 119.775390625 145.996996997 119.775390625 145.996996997 -86.9772358754 145.996996997 c 0,0,0
 -87.5999847504 145.996996997 -87.5999847504 145.996996997 -88.224609375 146 c 0
 -345.030164931 146.597222222 -345.030164931 146.597222222 -345.030164931 296.997685185 c 0,0,0
 -345.030164931 398.430555556 -345.030164931 398.430555556 -228.224609375 568 c 0
 -131.224609375 706 -131.224609375 706 -0.224609375 817 c 1
EndSplineSet
Validated: 524291
EndChar

StartChar: dolSZ.brzh
Encoding: 57361 57361 26
Width: 481
VWidth: 3070
GlyphClass: 2
Flags: HW
LayerCount: 3
Fore
SplineSet
40.0087890625 61 m 25,0,-1
 60.0087890625 41 l 25,2,-1
 60.0087890625 81 l 25,3,-1
 80.0087890625 61 l 25,4,-1
 40.0087890625 61 l 1049,5,-1
40.0087890625 -19 m 25,0,-1
 60.0087890625 -39 l 25,2,-1
 60.0087890625 1 l 25,3,-1
 80.0087890625 -19 l 25,4,-1
 40.0087890625 -19 l 1049,5,-1
0.0087890625 -103 m 1
 -211.991210938 -289 -211.991210938 -289 -211.991210938 -537 c 0
 -211.991210938 -743 -211.991210938 -743 -113.991210938 -743 c 0
 0.0087890625 -743 0.0087890625 -743 0.0087890625 -537 c 2
 0.0087890625 -103 l 1
0.0087890625 37 m 1
 0.0087890625 64 l 2
 0.0087890625 121 0.0087890625 121 60.0087890625 121 c 1
 120.008789017 121 120.008789017 121 120.008789062 64 c 2
 120.008789062 -537 l 2
 120.008789062 -862 120.008789062 -862 -114.491210938 -862 c 0
 -338.995625949 -862 -338.995625949 -862 -338.995625949 -540.85461164 c 0,0,0
 -338.995625949 -277.933095602 -338.995625949 -277.933095602 0.0087890625 37 c 1
EndSplineSet
Validated: 524291
EndChar

StartChar: dolDRZ.brzh
Encoding: 57362 57362 27
Width: 581
VWidth: 3070
GlyphClass: 2
Flags: HW
LayerCount: 3
Fore
SplineSet
80 60 m 25,0,-1
 60 80 l 25,2,-1
 60 40 l 25,3,-1
 40 60 l 25,4,-1
 80 60 l 1049,5,-1
80 -8 m 25,0,-1
 60 12 l 25,2,-1
 60 -28 l 25,3,-1
 40 -8 l 25,4,-1
 80 -8 l 1049,5,-1
-173.112304688 -225.133789062 m 0
 -173.112304688 -294.531553704 -173.112304688 -294.531553704 -79.8984375 -315.087402344 c 0
 -34.1953125 -325.166015625 -34.1953125 -325.166015625 -17.09765625 -298.583007812 c 0
 0 -272 0 -272 0.40625 -214.8046875 c 2
 0.40625 -102.569335938 l 1
 -110.453125 -135.620117188 l 1
 -173.112304688 -175.556640625 -173.112304688 -175.556640625 -173.112304688 -225.133789062 c 0
0 60 m 0
 0 120 0 120 60 120 c 0
 120 120 120 120 120 60 c 2
 120 -98 l 2
 120 -268.779568107 120 -268.779568107 93.36328125 -325.665039062 c 0
 51 -418 51 -418 -83.59765625 -417.931640625 c 0
 -174 -418 -174 -418 -226.367690458 -362.187048688 c 0
 -278.735380916 -306.374097377 -278.735380916 -306.374097377 -280.367690458 -230.187048688 c 0
 -280.443094539 -226.667609377 -280.443094539 -226.667609377 -280.443094539 -223.228823239 c 0,0,0
 -280.443094539 -152.22649995 -280.443094539 -152.22649995 -248.296895137 -115.60816462 c 0
 -214.593790274 -77.216329239 -214.593790274 -77.216329239 -151.078125 -34.7451171875 c 0
 -128.70342459 -23.7534485932 -128.70342459 -23.7534485932 -83.351712295 -1.3767242966 c 0
 -38 21 -38 21 0.40625 39.275390625 c 1
 0.40625 51.0679935695 l 2
 -5.55111512313e-17 55.3670530251 -5.55111512313e-17 55.3670530251 0 60 c 0
EndSplineSet
Validated: 524323
EndChar

StartChar: poczPUA
Encoding: 57344 57344 28
Width: 1040
GlyphClass: 2
Flags: HW
LayerCount: 3
Fore
SplineSet
1080.33984375 487.149414062 m 1
 1145.0859375 449.795898438 l 1
 965.441303773 155.182143894 l 1
 909.815621366 -102.619097106 909.815621366 -102.619097106 754.389801343 -102.619097106 c 0,0,0
 752.94045073 -102.619097106 752.94045073 -102.619097106 751.482421875 -102.596679688 c 0
 734.04836695 -102.330849117 734.04836695 -102.330849117 719.250830293 -98.8790860491 c 1
 688.243434297 -116.366210941 688.243434297 -116.366210941 649.3828125 -116.366210938 c 0
 648.698573729 -116.369307041 648.698573729 -116.369307041 648.017950486 -116.369307041 c 0,0,0
 519.890625 -116.369307041 519.890625 -116.369307041 519.890625 -6.6494140625 c 2
 519.890625 487.149414062 l 1
 520.19364884 487.149414062 l 1
 521.6484375 953.409179688 l 1
 521.6484375 953.995117188 l 2
 521.0625 1123.77050781 521.0625 1123.77050781 661.1015625 1123.77050781 c 0
 800.703610741 1123.77050781 800.703610741 1123.77050781 800.703610741 951.77381154 c 0,0,0
 800.703610741 700.9955265 800.703610741 700.9955265 623.6015625 405.947148085 c 1
 623.6015625 22.2080078125 l 1
 621.84375 22.2080078125 l 1
 621.84375 14.4443359375 l 2
 621.84375 -11.3651748754 621.84375 -11.3651748754 641.754074796 -14.9919868667 c 1
 636.19921875 9.26059362703 636.19921875 9.26059362703 636.19921875 40.2255859375 c 1
 726.287109375 40.2255859375 l 1
 726.287109375 36.290552797 726.287109375 36.290552797 726.398946892 32.6036591475 c 1
 784.402213661 1.9081250521 l 1
 880.332588013 159.202682327 l 1
 905.310524927 282.115617929 905.310524927 282.115617929 906.31640625 488.321289062 c 1
 996.2578125 488.321289062 l 1
 995.373428528 408.549854776 995.373428528 408.549854776 990.320376961 339.54681926 c 1
 1080.33984375 487.149414062 l 1
623.6015625 600.528320312 m 1
 708.26953125 809.415039062 708.26953125 809.415039062 708.85546875 949.161132812 c 0
 708.85546875 1015.22558594 708.85546875 1015.22558594 661.39453125 1015.22558594 c 0
 623.015625 1015.22558594 623.015625 1015.22558594 623.6015625 949.161132812 c 0
 624.846679688 862.735351562 624.846679688 862.735351562 624.846679688 775.577148437 c 0,0,0
 624.846679688 688.418945312 624.846679688 688.418945312 623.6015625 600.528320312 c 1
-110.97265625 487.149414062 m 1
 -36.55859375 470.450195312 l 1
 -75.5234375 244.717773438 -75.5234375 244.717773438 -123.5703125 171.622070312 c 0
 -203.157040371 50.8466992658 -203.157040371 50.8466992658 -327.994183566 -10.6438230915 c 1
 -376.066454789 -116.36621105 -376.066454789 -116.36621105 -471.6171875 -116.366210938 c 0
 -472.301426271 -116.369307041 -472.301426271 -116.369307041 -472.982049514 -116.369307041 c 0,0,0
 -601.109375 -116.369307041 -601.109375 -116.369307041 -601.109375 -6.6494140625 c 2
 -601.109375 487.149414062 l 1
 -600.80635116 487.149414062 l 1
 -599.3515625 953.409179688 l 1
 -599.3515625 953.995117188 l 2
 -599.9375 1123.77050781 -599.9375 1123.77050781 -459.8984375 1123.77050781 c 0
 -320.296389259 1123.77050781 -320.296389259 1123.77050781 -320.296389259 951.77381154 c 0,0,0
 -320.296389259 700.9955265 -320.296389259 700.9955265 -497.3984375 405.947148085 c 1
 -497.3984375 22.2080078125 l 1
 -499.15625 22.2080078125 l 1
 -499.15625 14.4443359375 l 2
 -499.15625 -15.5849609375 -499.15625 -15.5849609375 -473.64509253 -15.5849609375 c 0
 -448.13393506 -15.5849609375 -448.13393506 -15.5849609375 -432.041820432 -1.72617110928 c 1
 -444.517578125 22.2080078125 l 1
 -426.572081208 27.6654934582 -426.572081208 27.6654934582 -409.713571773 33.9285458787 c 0
 -408.760182795 36.7061862359 -408.760182795 36.7061862359 -407.896484375 39.6396484375 c 1
 -402.369901656 36.7149612997 l 1
 -150.537208319 134.292223758 -150.537208319 134.292223758 -110.97265625 487.149414062 c 1
-497.3984375 600.528320312 m 1
 -412.73046875 809.415039062 -412.73046875 809.415039062 -412.14453125 949.161132812 c 0
 -412.14453125 1015.22558594 -412.14453125 1015.22558594 -459.60546875 1015.22558594 c 0
 -497.984375 1015.22558594 -497.984375 1015.22558594 -497.3984375 949.161132812 c 0
 -496.153320312 862.735351562 -496.153320312 862.735351562 -496.153320312 775.577148437 c 0,0,0
 -496.153320312 688.418945312 -496.153320312 688.418945312 -497.3984375 600.528320312 c 1
EndSplineSet
Validated: 524321
EndChar

StartChar: koniecPUA
Encoding: 63743 63743 29
Width: 3000
LayerCount: 3
Fore
SplineSet
2300 1320 m 0,0,1
 2834 894 2834 894 2335 370 c 0,2,3
 1854 -136 1854 -136 1130 540 c 0,4,5
 782 865 782 865 1260 1375 c 4,6,7
 1675 1819 1675 1819 2300 1320 c 0,0,1
EndSplineSet
Validated: 33
EndChar

StartChar: stemG.krt
Encoding: 57355 57355 30
Width: 120
VWidth: 0
GlyphClass: 2
Flags: HW
LayerCount: 3
Fore
SplineSet
0 60 m 1025
80 60 m 25,0,-1
 60 80 l 25,2,-1
 60 40 l 25,3,-1
 40 60 l 25,4,-1
 80 60 l 1049,5,-1
79 640 m 25,0,-1
 59 660 l 25,2,-1
 59 620 l 25,3,-1
 39 640 l 25,4,-1
 79 640 l 1049,5,-1
-1 640 m 0
 -1 699.999996475 -1 699.999996475 59 700 c 0
 59.2387173874 700 59.2387173874 700 59.4765625464 699.998835646 c 0
 59.7377079609 699.998835646 59.7377079609 699.998835646 60 700 c 0
 120 700 120 700 120 639 c 2
 120 60 l 2
 120 0 120 0 60 0 c 0
 0 0 0 0 0 60 c 2
 0 626.28434649 l 2
 -1 632.73123476 -1 632.73123476 -1 640 c 0
EndSplineSet
Validated: 524291
EndChar

StartChar: stemI
Encoding: 57356 57356 31
Width: 120
VWidth: 0
GlyphClass: 2
Flags: HW
LayerCount: 3
Fore
SplineSet
0 60 m 1025
80 60 m 25,0,-1
 60 80 l 25,2,-1
 60 40 l 25,3,-1
 40 60 l 25,4,-1
 80 60 l 1049,5,-1
79 440 m 25,0,-1
 59 460 l 25,2,-1
 59 420 l 25,3,-1
 39 440 l 25,4,-1
 79 440 l 1049,5,-1
-1 440 m 0
 -1 499.999996475 -1 499.999996475 59 500 c 0
 59.2387173872 500 59.2387173872 500 59.4765625461 499.998835646 c 0
 59.7377079607 499.998835646 59.7377079607 499.998835646 60 500 c 0
 120 500 120 500 120 439 c 2
 120 60 l 2
 120 0 120 0 60 0 c 0
 0 0 0 0 0 60 c 2
 0 426.28434649 l 1
 -1 432.73123476 -1 432.73123476 -1 440 c 0
EndSplineSet
Validated: 524291
EndChar

StartChar: koloS
Encoding: 57440 57440 34
Width: 583
VWidth: 0
GlyphClass: 2
Flags: HW
LayerCount: 3
Fore
SplineSet
295 612 m 25,0,-1
 275 632 l 25,2,-1
 275 592 l 25,3,-1
 255 612 l 25,4,-1
 295 612 l 1049,5,-1
330 612 m 25,0,-1
 310 632 l 25,2,-1
 310 592 l 25,3,-1
 290 612 l 25,4,-1
 330 612 l 1049,5,-1
145 527 m 25,0,-1
 125 547 l 25,2,-1
 125 507 l 25,3,-1
 105 527 l 25,4,-1
 145 527 l 1049,5,-1
510 200 m 25,0,-1
 490 220 l 25,2,-1
 490 180 l 25,3,-1
 470 200 l 25,4,-1
 510 200 l 1049,5,-1
107 463 m 25,0,-1
 87 483 l 25,2,-1
 87 443 l 25,3,-1
 67 463 l 25,4,-1
 107 463 l 1049,5,-1
542 331 m 25,0,-1
 522 351 l 25,2,-1
 522 311 l 25,3,-1
 502 331 l 25,4,-1
 542 331 l 1049,5,-1
290.633789062 61.4462890625 m 25,0,-1
 270.633789062 81.4462890625 l 25,2,-1
 270.633789062 41.4462890625 l 25,3,-1
 250.633789062 61.4462890625 l 25,4,-1
 290.633789062 61.4462890625 l 1049,5,-1
331 62 m 25,0,-1
 311 82 l 25,2,-1
 311 42 l 25,3,-1
 291 62 l 25,4,-1
 331 62 l 1049,5,-1
80 331 m 25,0,-1
 60 351 l 25,2,-1
 60 311 l 25,3,-1
 40 331 l 25,4,-1
 80 331 l 1049,5,-1
474 147 m 25,0,-1
 454 167 l 25,2,-1
 454 127 l 25,3,-1
 434 147 l 25,4,-1
 474 147 l 1049,5,-1
165 473 m 0
 123.506143521 400.385751162 123.506143521 400.385751162 123.506143521 331.781646842 c 0,0,0
 123.506143521 260.740784719 123.506143521 260.740784719 168 194 c 0
 213.669064748 125.496402878 213.669064748 125.496402878 289.400859169 125.496402878 c 0,0,0
 289.949640288 125.496402878 289.949640288 125.496402878 290.5 125.5 c 0
 367 126 367 126 413.5 197.5 c 0
 458.082474227 266.051546392 458.082474227 266.051546392 458.082474227 338.739611011 c 0,0,0
 458.082474227 341.865979381 458.082474227 341.865979381 458 345 c 0
 456 421 456 421 416 485 c 0
 376 549 376 549 292.5 549 c 0
 209 549 209 549 165 473 c 0
100.346679688 588.369140625 m 0
 197.731035097 675.54965894 197.731035097 675.54965894 292.574540956 675.54965894 c 0,0,0
 387.418046816 675.54965894 387.418046816 675.54965894 479.720703125 588.369140625 c 0
 582.46736024 491.559645929 582.46736024 491.559645929 582.46736024 343.388024821 c 0,0,0
 582.46736024 181.310551023 582.46736024 181.310551023 496.965820312 101 c 0
 494.337046254 98.5408740679 494.337046254 98.5408740679 490.011834023 94.7532525077 c 0
 485.686621792 90.9656309475 485.686621792 90.9656309475 479.720703125 85.6298828125 c 0
 386.255593298 1.13508772063 386.255593298 1.13508772063 291.412087439 1.13508772063 c 0,0,0
 196.56858158 1.13508772063 196.56858158 1.13508772063 100.346679688 85.6298828125 c 0
 -3.18952411494e-06 174.000002809 -3.18952411494e-06 174.000002809 0 331 c 0
 0 331.154479483 0 331.154479483 0.000483937039426 331.308593698 c 0
 0.000483937039426 331.65413002 0.000483937039426 331.65413002 0 332 c 0
 0 489.999973307 0 489.999973307 81 571 c 0
 84.5943403444 574.594340344 84.5943403444 574.594340344 89.4941255189 578.801299918 c 0
 94.3939106933 583.008259492 94.3939106933 583.008259492 100.346679688 588.369140625 c 0
EndSplineSet
Validated: 526371
EndChar

StartChar: koloZ
Encoding: 57441 57441 35
Width: 449
VWidth: 300
GlyphClass: 2
Flags: HW
LayerCount: 3
Fore
SplineSet
200 412 m 25,0,-1
 180 432 l 25,2,-1
 180 392 l 25,3,-1
 160 412 l 25,4,-1
 200 412 l 1049,5,-1
281 414 m 25,0,-1
 261 434 l 25,2,-1
 261 394 l 25,3,-1
 241 414 l 25,4,-1
 281 414 l 1049,5,-1
207 68 m 25,0,-1
 187 88 l 25,2,-1
 187 48 l 25,3,-1
 167 68 l 25,4,-1
 207 68 l 1049,5,-1
287.793945312 69.837890625 m 25,0,-1
 267.793945312 89.837890625 l 25,2,-1
 267.793945312 49.837890625 l 25,3,-1
 247.793945312 69.837890625 l 25,4,-1
 287.793945312 69.837890625 l 1049,5,-1
72 416 m 0
 144 481 144 481 224 481 c 0
 304 481 304 481 355 434 c 0
 448.595038602 347.745748739 448.595038602 347.745748739 449.37109375 239 c 0
 449 189 449 189 426 138 c 0
 390.625483652 59.5608550548 390.625483652 59.5608550548 300.793945312 15.837890625 c 0
 268 0 268 0 223.471679688 0.048828125 c 0
 149.311394922 -0.032596900544 149.311394922 -0.032596900544 95.1556974611 45.4837015497 c 0
 0 125.459314974 0 125.459314974 0 238.229657487 c 0
 0 351 0 351 72 416 c 0
146.5 162.5 m 0
 178 128 178 128 227 128 c 0
 276 128 276 128 303.5 161 c 0
 331 194 331 194 331 229 c 0
 331 264 331 264 304 309.5 c 0
 277 355 277 355 228 355 c 0
 179 355 179 355 147 312.5 c 0
 115 270 115 270 115 233.5 c 0
 115 197 115 197 146.5 162.5 c 0
EndSplineSet
Validated: 524323
EndChar

StartChar: eprost3
Encoding: 57475 57475 36
Width: 698
GlyphClass: 2
Flags: HW
LayerCount: 3
Fore
SplineSet
639.641601562 92.3466796875 m 25,0,-1
 657.822265625 114.013671875 l 25,2,-1
 617.974609375 110.52734375 l 25,3,-1
 636.155273438 132.194335938 l 25,4,-1
 639.641601562 92.3466796875 l 1049,5,-1
61.935546875 40.7998046875 m 25,0,-1
 80.1162109375 62.466796875 l 25,2,-1
 40.2685546875 58.98046875 l 25,3,-1
 58.44921875 80.6474609375 l 25,4,-1
 61.935546875 40.7998046875 l 1049,5,-1
54.962890625 120.495117188 m 1025
619.090158403 169.849567335 m 1
 634.570448954 173.657545632 634.570448954 173.657545632 647.003424896 173.657545632 c 0,0,0
 692.709899657 173.657545632 692.709899657 173.657545632 697.232940078 122.193996828 c 0
 697.730549718 116.5321509 697.730549718 116.5321509 697.730549718 111.320227808 c 0,0,0
 697.730549718 56.2716301605 697.730549718 56.2716301605 642.21875 51.4150390625 c 2
 65.421875 0.9521484375 l 2
 60.6131086229 0.53142262713 60.6131086229 0.53142262713 56.1573711551 0.53142262713 c 0,0,0
 5.22966481463 0.53142262713 5.22966481463 0.53142262713 0.4208984375 55.494140625 c 0
 0.000172627129625 60.3029070021 0.000172627129625 60.3029070021 0.000172627129625 64.7586444699 c 0,0,0
 0.000172627129625 115.68635081 0.000172627129625 115.68635081 54.962890625 120.495117188 c 2
 619.090158403 169.849567335 l 1
EndSplineSet
Validated: 524291
EndChar

StartChar: eprost4
Encoding: 57476 57476 37
Width: 498
GlyphClass: 2
Flags: HW
LayerCount: 3
Fore
SplineSet
440.40234375 74.630859375 m 25,0,-1
 458.583007812 96.2978515625 l 25,2,-1
 418.735351562 92.8115234375 l 25,3,-1
 436.916015625 114.478515625 l 25,4,-1
 440.40234375 74.630859375 l 1049,5,-1
61.935546875 40.515625 m 25,0,-1
 80.1162109375 62.1826171875 l 25,2,-1
 40.267578125 58.6962890625 l 25,3,-1
 58.44921875 80.36328125 l 25,4,-1
 61.935546875 40.515625 l 1049,5,-1
54.962890625 120.2109375 m 1025
419.850724839 152.13469446 m 1
 435.355245812 155.948624889 435.355245812 155.948624889 447.803966107 155.948624889 c 0,0,0
 493.531553458 155.948624889 493.531553458 155.948624889 498.027351612 104.487423064 c 0
 498.51940323 98.8551489312 498.51940323 98.8551489312 498.51940323 93.6680587476 c 0,0,0
 498.51940323 38.5592458013 498.51940323 38.5592458013 442.979492188 33.7001953125 c 2
 65.4208984375 0.66796875 l 2
 60.6121320604 0.24724293963 60.6121320604 0.24724293963 56.1563945926 0.24724293963 c 0,0,0
 5.22868825213 0.24724293963 5.22868825213 0.24724293963 0.419921875 55.2099609375 c 0
 -0.000653134859525 60.0179801061 -0.000653134859525 60.0179801061 -0.000653134859525 64.4730789617 c 0,0,0
 -0.000653134859525 115.402996885 -0.000653134859525 115.402996885 54.962890625 120.2109375 c 2
 419.850724839 152.13469446 l 1
EndSplineSet
Validated: 524291
EndChar

StartChar: luD3
Encoding: 57447 57447 38
Width: 360
GlyphClass: 2
Flags: HW
LayerCount: 3
Fore
SplineSet
80 60 m 25,0,-1
 60 80 l 25,2,-1
 60 40 l 25,3,-1
 40 60 l 25,4,-1
 80 60 l 1049,5,-1
321 526 m 25,0,-1
 301 546 l 25,2,-1
 301 506 l 25,3,-1
 281 526 l 25,4,-1
 321 526 l 1049,5,-1
60 0 m 0
 0 0 0 0 0 60 c 0
 0 403 0 403 269 581 c 1
 269.93804605 579.377031437 l 1
 282.985409814 586 282.985409814 586 301 586 c 0
 361 586 361 586 361 526 c 0
 361 485.41207498 361 485.41207498 331.805748655 471.874412613 c 1
 120 334.873983347 120 334.873983347 120 60 c 1
 120 0 120 0 60 0 c 0
EndSplineSet
Validated: 524291
EndChar

StartChar: luD4
Encoding: 57448 57448 39
Width: 360
GlyphClass: 2
Flags: HW
LayerCount: 3
Fore
SplineSet
40 60 m 25,0,-1
 60 40 l 25,2,-1
 60 80 l 25,3,-1
 80 60 l 25,4,-1
 40 60 l 1049,5,-1
281 526 m 25,0,-1
 301 506 l 25,2,-1
 301 546 l 25,3,-1
 321 526 l 25,4,-1
 281 526 l 1049,5,-1
301 586 m 0
 361 586 361 586 361 526 c 0
 361 183 361 183 92 5 c 1
 91.06195395 6.62296856265 l 1
 78.014590186 8.881784197e-16 78.014590186 8.881784197e-16 60 0 c 0
 0 0 0 0 0 60 c 0
 0 100.58792502 0 100.58792502 29.1942513452 114.125587387 c 1
 241 251.126016653 241 251.126016653 241 526 c 1
 241 586 241 586 301 586 c 0
EndSplineSet
Validated: 524291
EndChar

StartChar: luT3
Encoding: 57452 57452 40
Width: 425
GlyphClass: 2
Flags: HW
LayerCount: 3
Fore
SplineSet
384.970703125 837 m 25,0,-1
 364.970703125 857 l 25,2,-1
 364.970703125 817 l 25,3,-1
 344.970703125 837 l 25,4,-1
 384.970703125 837 l 1049,5,-1
79.970703125 60 m 25,0,-1
 59.970703125 80 l 25,2,-1
 59.970703125 40 l 25,3,-1
 39.970703125 60 l 25,4,-1
 79.970703125 60 l 1049,5,-1
59.970703125 0 m 0
 -0.029296875 0 -0.029296875 0 -0.029296875 60 c 0
 -0.029296875 69.9999681772 -0.029296875 69.9999681772 0.029296875 80 c 0
 -0.0299378243996 698.694588289 -0.0299378243996 698.694588289 333.029296875 890.961914062 c 1
 353.606728408 898.065619073 353.606728408 898.065619073 370.088570799 898.065619073 c 0,0,0
 402.418780002 898.065619073 402.418780002 898.065619073 418.990234375 870.732421875 c 0
 420.442842942 865.395677313 420.442842942 865.395677313 422.706773176 857.681892903 c 0
 439.002174115 802.159329615 439.002174115 802.159329615 395.099735432 782.566544226 c 0
 389.505345959 779.696080273 389.505345959 779.696080273 383.904296875 776.038085938 c 0
 119.970703125 604.701670271 119.970703125 604.701670271 119.970703125 60 c 0
 119.970703125 0 119.970703125 0 59.970703125 0 c 0
EndSplineSet
Validated: 524323
EndChar

StartChar: luT4
Encoding: 57453 57453 41
Width: 425
GlyphClass: 2
Flags: HW
LayerCount: 3
Fore
SplineSet
346 838.065429688 m 25,0,-1
 366 818.065429688 l 25,2,-1
 366 858.065429688 l 25,3,-1
 386 838.065429688 l 25,4,-1
 346 838.065429688 l 1049,5,-1
41 61.0654296875 m 25,0,-1
 61 41.0654296875 l 25,2,-1
 61 81.0654296875 l 25,3,-1
 81 61.0654296875 l 25,4,-1
 41 61.0654296875 l 1049,5,-1
366 898.065429688 m 0
 426 898.065429688 426 898.065429688 426 838.065429688 c 0
 426 828.06546151 426 828.06546151 425.94140625 818.065429688 c 0
 426.000640949 199.370841397 426.000640949 199.370841397 92.94140625 7.103515625 c 1
 72.3639747174 -0.000189386022404 72.3639747174 -0.000189386022404 55.8821323264 -0.000189386022404 c 0,0,0
 23.5519231232 -0.000189386022404 23.5519231232 -0.000189386022404 6.98046875 27.3330078125 c 0
 5.52786018345 32.6697523743 5.52786018345 32.6697523743 3.26392994893 40.383536785 c 0
 -13.0314709898 95.9061000736 -13.0314709898 95.9061000736 30.8709676944 115.498885462 c 0
 36.4653571666 118.369349415 36.4653571666 118.369349415 42.06640625 122.02734375 c 0
 306 293.363759417 306 293.363759417 306 838.065429688 c 0
 306 898.065429688 306 898.065429688 366 898.065429688 c 0
EndSplineSet
Validated: 524323
EndChar

StartChar: okroci
Encoding: 57496 57496 42
Width: 542
GlyphClass: 2
Flags: HW
LayerCount: 3
Back
SplineSet
190.1328125 1 m 5,0,-1
 190 119 l 5,1,2
 306 119 306 119 393.5 255 c 132,-1,4
 422 300 422 300 422 402 c 4,5,6
 422 504 422 504 394 542 c 4,7,8
 307 659 307 659 190 658.883789062 c 5,9,-1
 190.1328125 778.75390625 l 5,10,11
 342 779 342 779 444.5 661 c 4,12,13
 541 551 541 551 541.260742188 400.625976562 c 4,14,15
 541 245 541 245 443.517578125 123.745117188 c 4,16,17
 344 1 344 1 190.1328125 1 c 5,0,-1
EndSplineSet
Refer: 46 57346 S 1 0 0 1 130 658 2
Refer: 46 57346 S 1 0 0 1 130 0 2
Refer: 46 57346 S 1 0 0 1 421 342 2
Fore
SplineSet
210 60 m 25,0,-1
 190 80 l 25,2,-1
 190 40 l 25,3,-1
 170 60 l 25,4,-1
 210 60 l 1049,5,-1
501 403 m 25,0,-1
 481 423 l 25,2,-1
 481 383 l 25,3,-1
 461 403 l 25,4,-1
 501 403 l 1049,5,-1
410 153 m 25,0,-1
 390 173 l 25,2,-1
 390 133 l 25,3,-1
 370 153 l 25,4,-1
 410 153 l 1049,5,-1
80 638 m 25,0,-1
 60 658 l 25,2,-1
 60 618 l 25,3,-1
 40 638 l 25,4,-1
 80 638 l 1049,5,-1
60 578 m 0
 0 578 0 578 0 638 c 0
 0 670.455169756 0 670.455169756 21.2058359213 686.543420316 c 1
 93.8777869665 779.002317833 93.8777869665 779.002317833 216.438893483 779.501158917 c 0
 216.965954914 779.503304131 216.965954914 779.503304131 217.492626853 779.503304131 c 0,0,0
 339.436490309 779.503304131 339.436490309 779.503304131 440.5 664.5 c 0
 542 549 542 549 542 403 c 0
 542 312 542 312 507 228 c 0
 449 89 449 89 353 43.5 c 0
 261.042105263 -0.0842105263158 261.042105263 -0.0842105263158 195.815381752 -0.0842105263158 c 0,0,0
 192.948273026 -0.0842105263158 192.948273026 -0.0842105263158 190.1328125 0 c 0
 190.066442904 7.883320459e-05 190.066442904 7.883320459e-05 190 0 c 0
 130 0 130 0 130 60 c 0
 130 120 130 120 190 120 c 0
 248 123 248 123 278 141.5 c 0
 308 160 308 160 346.166503906 198.166503906 c 0
 384.333007812 236.333007812 384.333007812 236.333007812 407.666503906 319.666503906 c 0
 419.546934121 362.096398721 419.546934121 362.096398721 419.546934121 404.021481265 c 0,0,0
 419.546934121 444.438429444 419.546934121 444.438429444 408.505859375 484.386230469 c 0
 386.01171875 565.772460938 386.01171875 565.772460938 346.5 595.5 c 0
 272 653 272 653 218.955728221 655.905367989 c 0
 216.520948026 656.038727016 216.520948026 656.038727016 214.07738953 656.038727016 c 0,0,0
 163.28543163 656.038727016 163.28543163 656.038727016 108.700717614 598.41957741 c 0
 105.665202622 594.350411882 105.665202622 594.350411882 103.579273209 592.454226068 c 0
 101.493343796 590.558040255 101.493343796 590.558040255 101 590 c 1
 100.865939891 590.157230991 l 1
 86.0922389902 578 86.0922389902 578 60 578 c 0
EndSplineSet
Validated: 524291
EndChar

StartChar: ellipsis
Encoding: 8230 8230 43
Width: 3000
LayerCount: 3
Fore
SplineSet
768 251 m 1,0,-1
 950 252 l 1,1,-1
 782 61 l 1,2,-1
 940 -131 l 1,3,-1
 758 -133 l 1,4,-1
 708 -23 l 1,5,-1
 637 -137 l 1,6,-1
 476 -133 l 1,7,-1
 637 54 l 1,8,-1
 477 252 l 1,9,-1
 654 252 l 1,10,-1
 714 148 l 1,11,-1
 768 251 l 1,0,-1
1466 256 m 1,0,-1
 1648 257 l 1,1,-1
 1480 66 l 1,2,-1
 1638 -126 l 1,3,-1
 1456 -128 l 1,4,-1
 1406 -18 l 1,5,-1
 1335 -132 l 1,6,-1
 1174 -128 l 1,7,-1
 1335 59 l 1,8,-1
 1175 257 l 1,9,-1
 1352 257 l 1,10,-1
 1412 153 l 1,11,-1
 1466 256 l 1,0,-1
2112 246 m 1,0,-1
 2294 247 l 1,1,-1
 2126 56 l 1,2,-1
 2284 -136 l 1,3,-1
 2102 -138 l 1,4,-1
 2052 -28 l 1,5,-1
 1981 -142 l 1,6,-1
 1820 -138 l 1,7,-1
 1981 49 l 1,8,-1
 1821 247 l 1,9,-1
 1998 247 l 1,10,-1
 2058 143 l 1,11,-1
 2112 246 l 1,0,-1
EndSplineSet
Validated: 1
EndChar

StartChar: prostaVOW
Encoding: 57348 57348 44
Width: 80
GlyphClass: 2
Flags: HW
LayerCount: 3
Fore
SplineSet
0 900 m 1
 80 900 l 1
 80 0 l 1
 0 0 l 1
 0 900 l 1
EndSplineSet
Validated: 1
EndChar

StartChar: prostaCONS
Encoding: 57347 57347 45
Width: 125
GlyphClass: 2
Flags: HW
LayerCount: 3
Fore
SplineSet
0.1103515625 900 m 1
 120.110351562 900 l 1
 119.684570312 0.3310546875 l 1
 0 -0.0341796875 l 1
 0.1103515625 900 l 1
EndSplineSet
Validated: 524289
Layer: 2
SplineSet
60.1103515625 353 m 4
 99.384765625 353 125.110351562 332.149414062 125.110351562 292 c 4
 125.110351562 248 106.110351562 227 61.1103515625 227 c 4
 26.8349609375 227 0.1103515625 247 0.1103515625 291 c 4
 0.1103515625 325 21.1103515625 353 60.1103515625 353 c 4
EndSplineSet
EndChar

StartChar: konCONS
Encoding: 57346 57346 46
Width: 174
GlyphClass: 2
Flags: HW
LayerCount: 3
Fore
SplineSet
80 60 m 25,0,-1
 60 80 l 25,2,-1
 60 40 l 25,3,-1
 40 60 l 25,4,-1
 80 60 l 1049,5,-1
0 60 m 0
 0 120 0 120 60 120 c 0
 120 120 120 120 120 60 c 0
 120 0 120 0 60 0 c 0
 0 0 0 0 0 60 c 0
EndSplineSet
Validated: 3
Layer: 2
SplineSet
60 80 m 29
 60 40 l 29
 40 60 l 29
 80 60 l 1053
60 120 m 132
 78.6666666667 120 93.3333333333 114.666666667 104 104 c 132
 114.666666667 93.3333333333 120 78.6666666667 120 60 c 4
 120 40 114.321940104 24.6666666667 102.965820312 14 c 4
 92.9886067707 4.66666666667 78.6666666667 0 60 0 c 132
 41.3333333333 0 27.0113932292 4.66666666667 17.0341796875 14 c 4
 5.67805989583 24.6666666667 0 40 0 60 c 4
 0 78.6666666667 5.33333333333 93.3333333333 16 104 c 132
 26.6666666667 114.666666667 41.3333333333 120 60 120 c 132
EndSplineSet
EndChar

StartChar: endash
Encoding: 8211 8211 47
Width: 1646
GlyphClass: 2
Flags: HW
LayerCount: 3
Fore
SplineSet
69 868 m 1
 1549 868 l 1
 1549 698 l 1
 69 698 l 1
 69 868 l 1
69 592 m 1
 1549 592 l 1
 1549 420 l 1
 69 420 l 1
 69 592 l 1
EndSplineSet
Validated: 1
EndChar

StartChar: konVOW
Encoding: 57345 57345 48
Width: 80
GlyphClass: 2
Flags: HW
LayerCount: 3
Fore
SplineSet
40 80 m 0
 80 80 80 80 80 40 c 0
 80 0 80 0 40 0 c 0
 0 0 0 0 0 40 c 0
 0 80 0 80 40 80 c 0
EndSplineSet
Validated: 1
EndChar

StartChar: eprost2
Encoding: 57474 57474 49
Width: 947
GlyphClass: 2
Flags: HW
LayerCount: 3
Fore
SplineSet
898.739257812 116.116210938 m 25,0,-1
 916.919921875 137.783203125 l 25,2,-1
 877.072265625 134.296875 l 25,3,-1
 895.252929688 155.963867188 l 25,4,-1
 898.739257812 116.116210938 l 1049,5,-1
61.935546875 42.9052734375 m 25,0,-1
 80.1162109375 64.5732421875 l 25,2,-1
 40.2685546875 61.0869140625 l 25,3,-1
 58.44921875 82.75390625 l 25,4,-1
 61.935546875 42.9052734375 l 1049,5,-1
54.962890625 122.6015625 m 1029
890.770507812 195.724609375 m 2
 895.734027522 196.158855531 895.734027522 196.158855531 900.327014532 196.158855531 c 0,0,0
 951.965233077 196.158855531 951.965233077 196.158855531 956.767579968 141.26951024 c 0
 957.181955497 136.533325613 957.181955497 136.533325613 957.181955497 132.139047748 c 0,0,0
 957.181955497 81.0767832843 957.181955497 81.0767832843 901.229492188 76.181640625 c 2
 65.421875 3.0576171875 l 2
 60.6131023021 2.63689769794 60.6131023021 2.63689769794 56.1573605475 2.63689769794 c 0,0,0
 5.22877313867 2.63689769794 5.22877313867 2.63689769794 0.4208984375 57.6005859375 c 0
 0.000172627129625 62.4093523146 0.000172627129625 62.4093523146 0.000172627129625 66.8650897824 c 0,0,0
 0.000172627129625 117.792796123 0.000172627129625 117.792796123 54.962890625 122.6015625 c 2
 890.770507812 195.724609375 l 2
EndSplineSet
Validated: 524291
EndChar

StartChar: dolMv.brzhd
Encoding: 57379 57379 50
Width: 359
GlyphClass: 2
Flags: HW
LayerCount: 3
Fore
SplineSet
80 60 m 25,0,-1
 60 80 l 25,2,-1
 60 40 l 25,3,-1
 40 60 l 25,4,-1
 80 60 l 1049,5,-1
75.46875 327.01953125 m 25,0,-1
 55.46875 347.01953125 l 25,2,-1
 55.46875 307.01953125 l 25,3,-1
 35.46875 327.01953125 l 25,4,-1
 75.46875 327.01953125 l 1049,5,-1
55.46875 387.01953125 m 0
 115.468752062 387.01953125 115.468752062 387.01953125 115.468748195 327 c 1
 116 327 l 1
 116 201 l 1
 116 251 116 251 178 250.758789062 c 0
 355 251 355 251 355 12 c 0
 355 -227 355 -227 175.5 -227 c 0
 -4 -227 -4 -227 -4 138 c 2
 -4 316.860198278 l 2
 -4.53125 321.721553694 -4.53125 321.721553694 -4.53125 327.01953125 c 0
 -4.53125 387.01953125 -4.53125 387.01953125 55.46875 387.01953125 c 0
116 -35 m 0
 116 -107 116 -107 178 -107 c 0
 240 -107 240 -107 240 17.1123046875 c 0
 240 141.616068971 240 141.616068971 177.735651873 141.616068971 c 0,0,0
 116.997830898 141.616068971 116.997830898 141.616068971 116 -35 c 0
EndSplineSet
Validated: 524323
EndChar

StartChar: luGL
Encoding: 57459 57459 51
Width: 355
GlyphClass: 2
Flags: HW
LayerCount: 3
Fore
SplineSet
130 412 m 25,38,-1
 130 372 l 25,39,-1
 110 392 l 25,40,-1
 150 392 l 1049
130 81 m 25,18,-1
 130 41 l 25,19,-1
 110 61 l 25,20,-1
 150 61 l 1049
179 384 m 25,0,-1
 159 404 l 25,2,-1
 159 364 l 25,3,-1
 139 384 l 25,4,-1
 179 384 l 1049,5,-1
125 384 m 25,0,-1
 105 404 l 25,2,-1
 105 364 l 25,3,-1
 85 384 l 25,4,-1
 125 384 l 1049,5,-1
178 232 m 25,0,-1
 158 252 l 25,2,-1
 158 212 l 25,3,-1
 138 232 l 25,4,-1
 178 232 l 1049,5,-1
128 231 m 25,0,-1
 108 251 l 25,2,-1
 108 211 l 25,3,-1
 88 231 l 25,4,-1
 128 231 l 1049,5,-1
70 61 m 0
 70 121 70 121 130 121 c 0
 130.197403743 121 130.197403743 121 130.39453125 121.096679688 c 0
 175 121 175 121 206.128098618 150.691417144 c 0
 237.256197237 180.382834287 237.256197237 180.382834287 239.661114461 220.146276545 c 1
 200.958802592 162.000002695 200.958802592 162.000002695 132.799804688 162 c 0
 88.799801755 162 88.799801755 162 56.7998032213 188.800292969 c 0
 0 236.370650364 0 236.370650364 0 306.785422838 c 0
 0 377.200195312 0 377.200195312 42.8002929688 416.000488281 c 0
 85.6005859375 454.80078125 85.6005859375 454.80078125 118.094889921 454.80078125 c 0
 222.181827336 454.80078125 222.181827336 454.80078125 289.090913668 388.400390625 c 0
 356 322 356 322 356 227.5 c 0
 356 133 356 133 290 67 c 0
 224 1 224 1 130 1 c 0
 70 1 70 1 70 61 c 0
EndSplineSet
Validated: 524291
EndChar

StartChar: dolTW
Encoding: 57538 57538 52
Width: 237
GlyphClass: 2
Flags: HW
LayerCount: 3
Fore
SplineSet
225 60 m 25,0,-1
 205 80 l 25,2,-1
 205 40 l 25,3,-1
 185 60 l 25,4,-1
 225 60 l 1049,5,-1
80 80 m 25,0,-1
 60 100 l 25,2,-1
 60 60 l 25,3,-1
 40 80 l 25,4,-1
 80 80 l 1049,5,-1
0 96 m 1
 1.42704065644 99.4248975755 1.42704065644 99.4248975755 4.29812618638 107.06051967 c 0
 7.16921171632 114.696141764 7.16921171632 114.696141764 11.5743828224 119.582736241 c 0
 15.9795539285 124.469330718 15.9795539285 124.469330718 20.9897769642 132.234665359 c 0
 26 140 26 140 40.8479563423 140 c 0
 55.6959126845 140 55.6959126845 140 72.7551819426 140.435608615 c 0
 89.8144512007 140.87121723 89.8144512007 140.87121723 105.045790078 123.332102723 c 0
 134.417443866 89.510204121 134.417443866 89.510204121 170.47093265 111.446936862 c 0
 180.796583612 120.759776513 180.796583612 120.759776513 194.599029301 120.370235164 c 0
 208.401474991 119.980693815 208.401474991 119.980693815 216.314230274 120.413318728 c 0
 265.069202189 123.078966124 265.069202189 123.078966124 265.069202189 58.7034222975 c 0,0,0
 265.069202189 -13.8099997893 265.069202189 -13.8099997893 127.580722996 -13.8099997893 c 0,0,0
 126.792620254 -13.8099997893 126.792620254 -13.8099997893 126 -13.8076171875 c 0
 35.5073537579 -13.9457856779 35.5073537579 -13.9457856779 10.0061281652 42.2380148173 c 0
 -1.6403131123 59.4282140977 -1.6403131123 59.4282140977 -0.820155980813 74.9855000319 c 0
 1.15067034792e-06 90.5427859661 1.15067034792e-06 90.5427859661 0 95 c 2
 0 96 l 1
EndSplineSet
Validated: 524323
EndChar

StartChar: dolMK30
Encoding: 57539 57539 53
Width: 434
GlyphClass: 2
Flags: HW
LayerCount: 3
Fore
SplineSet
80.46875 78 m 25,0,-1
 60.46875 98 l 25,2,-1
 60.46875 58 l 25,3,-1
 40.46875 78 l 25,4,-1
 80.46875 78 l 1049,5,-1
80.46875 59 m 25,0,-1
 60.46875 79 l 25,2,-1
 60.46875 39 l 25,3,-1
 40.46875 59 l 25,4,-1
 80.46875 59 l 1049,5,-1
120.46875 59 m 1
 119.46875 36 l 1
 0 -166 l 1
 0 77 l 2
 0 138 0 138 56.5508475646 138.471257063 c 0
 57.104109277 138.475867577 57.104109277 138.475867577 57.6525820569 138.475867577 c 0,0,0
 120.46875 138.475867577 120.46875 138.475867577 120.46875 78 c 1
 120.46875 72.9687044426 120.46875 72.9687044426 120.468749819 68.4069811621 c 2
 120.46875 59 l 1
EndSplineSet
Validated: 524291
EndChar

StartChar: dolTWe
Encoding: 57540 57540 54
Width: 335
GlyphClass: 2
Flags: HW
LayerCount: 3
Fore
SplineSet
80 180 m 25,0,-1
 60 200 l 25,2,-1
 60 160 l 25,3,-1
 40 180 l 25,4,-1
 80 180 l 1049,5,-1
202 80 m 25,0,-1
 182 100 l 25,2,-1
 182 60 l 25,3,-1
 162 80 l 25,4,-1
 202 80 l 1049,5,-1
0 180 m 2
 0 240 0 240 60 240 c 0
 120 240 120 240 120 180 c 2
 120 179 l 1
 129 151 129 151 140.5 145.5 c 0
 152 140 152 140 176 140 c 2
 182 140 l 2
 242 140 242 140 242 80 c 0
 242 20 242 20 182 20 c 0
 179.831331053 20 179.831331053 20 177.740852638 20.083984375 c 2
 175.623046875 20.083984375 l 1
 117 23 117 23 78 48 c 0
 6.59437665957 91.2085356457 6.59437665957 91.2085356457 0 177.650390625 c 1
 0 180 l 2
EndSplineSet
Validated: 524291
EndChar

StartChar: dolMKE
Encoding: 57541 57541 55
Width: 120
GlyphClass: 2
Flags: HW
LayerCount: 3
Fore
SplineSet
80 60 m 25,0,-1
 60 80 l 25,2,-1
 60 40 l 25,3,-1
 40 60 l 25,4,-1
 80 60 l 1049,5,-1
80 140 m 25,0,-1
 60 160 l 25,2,-1
 60 120 l 25,3,-1
 40 140 l 25,4,-1
 80 140 l 1049,5,-1
0 140 m 2
 0 200 0 200 60 200 c 0
 120 200 120 200 120 140 c 2
 120 7 l 1
 0 -10 l 1
 0 140 l 2
EndSplineSet
Validated: 3
EndChar

StartChar: luU0
Encoding: 57517 57517 56
Width: 455
GlyphClass: 2
Flags: HW
LayerCount: 3
Fore
SplineSet
80 60 m 25,0,-1
 60 80 l 25,2,-1
 60 40 l 25,3,-1
 40 60 l 25,4,-1
 80 60 l 1049,5,-1
414 780 m 25,0,-1
 394 800 l 25,2,-1
 394 760 l 25,3,-1
 374 780 l 25,4,-1
 414 780 l 1049,5,-1
60 120 m 0
 120 120 120 120 120 60 c 0
 120 -44 120 -44 168 -44 c 0
 333 -44 333 -44 333 780 c 1
 334 780 l 1
 334 840 334 840 394 840 c 0
 454 840 454 840 454 780 c 0
 453.00524109 -164.026205451 453.00524109 -164.026205451 168.010984314 -164.026205451 c 0,0,0
 166.509433962 -164.026205451 166.509433962 -164.026205451 165 -164 c 0
 0 -161 0 -161 0 60 c 0
 0 120 0 120 60 120 c 0
EndSplineSet
Validated: 524291
EndChar

StartChar: luU2
Encoding: 57519 57519 57
Width: 773
GlyphClass: 2
Flags: HW
LayerCount: 3
Fore
SplineSet
727.008789062 505.60546875 m 25,0,-1
 719.688476562 532.92578125 l 25,2,-1
 699.688476562 498.28515625 l 25,3,-1
 692.368164062 525.60546875 l 25,4,-1
 727.008789062 505.60546875 l 1049,5,-1
80.361328125 57.337890625 m 25,0,-1
 62.1806640625 79.0048828125 l 25,2,-1
 58.6943359375 39.1572265625 l 25,3,-1
 40.513671875 60.82421875 l 25,4,-1
 80.361328125 57.337890625 l 1049,5,-1
146.965820312 -85 m 0
 155.8652418 -91.3545133559 155.8652418 -91.3545133559 167.350836881 -91.3545133559 c 0,0,0
 282.388172925 -91.3545133559 282.388172925 -91.3545133559 656.860351562 546.10546875 c 1
 657.7265625 545.60546875 l 0
 676.745736805 578.548068999 676.745736805 578.548068999 704.592133135 578.548068999 c 0,0,0
 720.66912537 578.548068999 720.66912537 578.548068999 739.688476562 567.567382812 c 0
 772.639653901 548.543256586 772.639653901 548.543256586 772.639653901 520.702124744 c 0,0,0
 772.639653901 504.519038341 772.639653901 504.519038341 761.506457556 485.356955051 c 0
 363.073464075 -207.240714413 363.073464075 -207.240714413 162.994990539 -207.240714413 c 0,0,0
 133.315084958 -207.240714413 133.315084958 -207.240714413 108 -192 c 0
 -1.52152782531 -126.287083305 -1.52152782531 -126.287083305 -1.52152782531 21.0380762689 c 0,0,0
 -1.52152782531 41.8592648367 -1.52152782531 41.8592648367 0.666015625 64.310546875 c 0
 5.47474790158 119.273259967 5.47474790158 119.273259967 56.4025299102 119.273259967 c 0,0,0
 60.8582482167 119.273259967 60.8582482167 119.273259967 65.6669921875 118.852539062 c 0
 121.50307241 113.967395188 121.50307241 113.967395188 121.50307241 66.5925013993 c 0,0,0
 121.50307241 55.0642253871 121.50307241 55.0642253871 118.196735116 41.0199159398 c 1
 114.961071715 18.0855759409 114.961071715 18.0855759409 114.961071715 -1.11753778977 c 0,0,0
 114.961071715 -61.512010759 114.961071715 -61.512010759 146.965820312 -85 c 0
EndSplineSet
Validated: 524291
EndChar

StartChar: luNdol
Encoding: 57528 57528 58
Width: 452
GlyphClass: 2
Flags: HW
LayerCount: 3
Fore
SplineSet
412 105 m 25,0,-1
 392 125 l 25,2,-1
 392 85 l 25,3,-1
 372 105 l 25,4,-1
 412 105 l 1049,5,-1
80 60 m 25,0,-1
 60 80 l 25,2,-1
 60 40 l 25,3,-1
 40 60 l 25,4,-1
 80 60 l 1049,5,-1
60 120 m 0
 94.9498485183 120 94.9498485183 120 110.669336765 95.7665906579 c 1
 111 96 l 1
 147.854700855 54.9572649573 147.854700855 54.9572649573 206.107750749 54.9572649573 c 0,0,0
 217.401709402 54.9572649573 217.401709402 54.9572649573 229.5 56.5 c 0
 304 66 304 66 335 129 c 1
 335.565640753 128.761835473 l 1
 347.820448902 165 347.820448902 165 392 165 c 0
 452 165 452 165 452 105 c 0
 452 91.6971598455 452 91.6971598455 448.650596575 81.1471172315 c 1
 449 81 l 1
 448.266914175 79.4116473801 448.266914175 79.4116473801 446.208190902 74.2696454919 c 0
 444.149467628 69.1276436038 444.149467628 69.1276436038 440.420105671 64.6721395661 c 0
 436.690743715 60.2166355284 436.690743715 60.2166355284 435 58.130859375 c 0
 360 -52 360 -52 254 -66 c 0
 220.347461781 -70.5232078844 220.347461781 -70.5232078844 190.884069474 -70.5232078844 c 0,0,0
 68.0167898156 -70.5232078844 68.0167898156 -70.5232078844 18 8.13671875 c 0
 14.6847539734 14.6538967301 14.6847539734 14.6538967301 7.34237731154 25.4482548055 c 0
 6.49701991762e-07 36.2426128809 6.49701991762e-07 36.2426128809 0 60 c 0
 0 120 0 120 60 120 c 0
EndSplineSet
Validated: 524291
EndChar

StartChar: dolLUK
Encoding: 57545 57545 59
Width: 517
GlyphClass: 2
Flags: HW
LayerCount: 3
Fore
SplineSet
80 60 m 25,0,-1
 60 80 l 25,2,-1
 60 40 l 25,3,-1
 40 60 l 25,4,-1
 80 60 l 1049,5,-1
410 24 m 25,0,-1
 390 44 l 25,2,-1
 390 4 l 25,3,-1
 370 24 l 25,4,-1
 410 24 l 1049,5,-1
0.00514102238915 60.9999571581 m 0
 0.614156417495 120 0.614156417495 120 60.3070782087 120 c 0
 120 120 120 120 120 60 c 2
 120 24 l 2
 120 -20 120 -20 236 -20 c 0
 298 -20 298 -20 334 52 c 1
 334.97335092 51.491402222 l 1
 348.581702221 84 348.581702221 84 390 84 c 0
 450 84 450 84 450 24 c 0
 450 6.86159415621 450 6.86159415621 444.440707045 -5.70775683409 c 1
 445 -6 l 1
 368 -140 368 -140 235 -140 c 0
 233.584337349 -140.006024096 233.584337349 -140.006024096 232.177202787 -140.006024096 c 0,0,0
 -2.84217094304e-14 -140.006024096 -2.84217094304e-14 -140.006024096 0 24 c 2
 0 60 l 1
 0.00514102238915 60.9999571581 l 0
EndSplineSet
Validated: 524323
EndChar

StartChar: eprost0
Encoding: 57472 57472 60
Width: 1703
GlyphClass: 2
Flags: HW
LayerCount: 3
Fore
SplineSet
1644.88964844 178.784179688 m 25,0,-1
 1663.0703125 200.451171875 l 25,2,-1
 1623.22265625 196.96484375 l 25,3,-1
 1641.40332031 218.631835938 l 25,4,-1
 1644.88964844 178.784179688 l 1049,5,-1
61.935546875 40.2939453125 m 25,0,-1
 80.1162109375 61.9609375 l 25,2,-1
 40.2685546875 58.474609375 l 25,3,-1
 58.44921875 80.1416015625 l 25,4,-1
 61.935546875 40.2939453125 l 1049,5,-1
54.962890625 119.989257812 m 1025
1646.44868316 258.826820088 m 0
 1698.11428814 258.842089136 1698.11428814 258.842089136 1703.13087561 201.504040163 c 0
 1703.51343149 197.131544279 1703.51343149 197.131544279 1703.51343149 193.061570564 c 0,0,0
 1703.51343149 143.760606684 1703.51343149 143.760606684 1647.37988281 138.849609375 c 2
 65.421875 0.4462890625 l 2
 60.6131086229 0.0255632521296 60.6131086229 0.0255632521296 56.1573711551 0.0255632521296 c 0,0,0
 5.22966481463 0.0255632521296 5.22966481463 0.0255632521296 0.4208984375 54.98828125 c 0
 0.000172627129625 59.7970476271 0.000172627129625 59.7970476271 0.000172627129625 64.2527850949 c 0,0,0
 0.000172627129625 115.180491435 0.000172627129625 115.180491435 54.962890625 119.989257812 c 2
 1636.92089844 258.392578125 l 2
 1642.32482168 258.864096918 1642.32482168 258.864096918 1646.44868316 258.826820088 c 0
EndSplineSet
Validated: 524291
EndChar

StartChar: eprost1
Encoding: 57473 57473 61
Width: 1304
GlyphClass: 2
Flags: HW
LayerCount: 3
Fore
SplineSet
1246.32421875 144.349609375 m 25,0,-1
 1264.50488281 166.016601562 l 25,2,-1
 1224.65722656 162.53125 l 25,3,-1
 1242.83789062 184.198242188 l 25,4,-1
 1246.32421875 144.349609375 l 1049,5,-1
61.935546875 39.7255859375 m 25,0,-1
 80.1162109375 61.392578125 l 25,2,-1
 40.2685546875 57.90625 l 25,3,-1
 58.44921875 79.5732421875 l 25,4,-1
 61.935546875 39.7255859375 l 1049,5,-1
54.962890625 119.420898438 m 1025
1225.77264699 221.853456059 m 1
 1241.2771226 225.667364877 1241.2771226 225.667364877 1253.72581365 225.667364877 c 0,0,0
 1299.45342933 225.667364877 1299.45342933 225.667364877 1303.9492287 174.206149159 c 0
 1304.44127997 168.57387896 1304.44127997 168.57387896 1304.44127997 163.386792236 c 0,0,0
 1304.44127997 108.277995954 1304.44127997 108.277995954 1248.90136719 103.418945312 c 2
 65.421875 -0.1220703125 l 2
 60.613030056 -0.54279612287 60.613030056 -0.54279612287 56.1572266631 -0.54279612287 c 0,0,0
 5.22876681904 -0.54279612287 5.22876681904 -0.54279612287 0.4208984375 54.419921875 c 0
 0.000172627129625 59.228766819 0.000172627129625 59.228766819 0.000172627129625 63.6845702119 c 0,0,0
 0.000172627129625 114.613030056 0.000172627129625 114.613030056 54.962890625 119.420898438 c 2
 1225.77264699 221.853456059 l 1
EndSplineSet
Validated: 524291
EndChar

StartChar: eprost5
Encoding: 57477 57477 62
Width: 299
GlyphClass: 2
Flags: HW
LayerCount: 3
Fore
SplineSet
283.177734375 59.5439453125 m 25,0,-1
 301.358398438 81.2109375 l 25,2,-1
 261.510742188 77.724609375 l 25,3,-1
 279.69140625 99.392578125 l 25,4,-1
 283.177734375 59.5439453125 l 1049,5,-1
62.0224609375 40.1953125 m 25,0,-1
 80.203125 61.8623046875 l 25,2,-1
 40.35546875 58.376953125 l 25,3,-1
 58.5361328125 80.0439453125 l 25,4,-1
 62.0224609375 40.1953125 l 1049,5,-1
55.13671875 118.895507812 m 1025
285.754882812 18.61328125 m 2
 65.595703125 -0.6484375 l 2
 60.8596258446 -1.0628036379 60.8596258446 -1.0628036379 56.4654394092 -1.0628036379 c 0,0,0
 5.40321825633 -1.0628036379 5.40321825633 -1.0628036379 0.5078125 54.890625 c 0
 0.033835279599 60.3080765191 0.033835279599 60.3080765191 0.033835279599 65.2776548687 c 0,0,0
 0.033835279599 120.419848348 0.033835279599 120.419848348 58.3899623409 120.419848348 c 0,0,0
 63.1674722444 120.419848348 63.1674722444 120.419848348 68.3361081877 120.050263373 c 1
 262.626411631 137.047853251 l 1
 278.124737811 140.860194221 278.124737811 140.860194221 290.569436248 140.860194221 c 0,0,0
 336.292070377 140.860194221 336.292070377 140.860194221 340.794530234 89.3983356083 c 0
 341.287934837 83.7588588042 341.287934837 83.7588588042 341.287934837 78.565718806 c 0,0,0
 341.287934837 23.4717316601 341.287934837 23.4717316601 285.754882812 18.61328125 c 2
EndSplineSet
Validated: 524291
EndChar

StartChar: eprost6
Encoding: 57478 57478 63
Width: 200
GlyphClass: 2
Flags: HW
LayerCount: 3
Fore
SplineSet
55.0498046875 120.248046875 m 1029,40,-1
199.659179688 73.6748046875 m 29,16,-1
 159.811523438 70.1884765625 l 29,17,-1
 177.9921875 91.85546875 l 29,18,-1
 181.478515625 52.0078125 l 1053,19,-1
80.1162109375 63.2158203125 m 29,0,-1
 40.2685546875 59.7294921875 l 29,1,-1
 58.44921875 81.396484375 l 29,2,-1
 61.935546875 41.548828125 l 1053,3,-1
184.055664062 11.076171875 m 2
 65.5087890625 0.705078125 l 2
 60.7724912577 0.290692693104 60.7724912577 0.290692693104 56.3781111572 0.290692693104 c 0,0,0
 5.31526515026 0.290692693104 5.31526515026 0.290692693104 0.419921875 56.2431640625 c 0
 -0.0536880850966 61.6585849153 -0.0536880850966 61.6585849153 -0.0536880850966 66.6264678422 c 0,0,0
 -0.0536880850966 121.772321075 -0.0536880850966 121.772321075 58.3047746058 121.772321075 c 0,0,0
 63.0813688992 121.772321075 63.0813688992 121.772321075 68.2489236803 121.402882802 c 1
 160.930551684 129.51191446 l 1
 176.425343916 133.322391134 176.425343916 133.322391134 188.867794496 133.322391134 c 0,0,0
 234.593919585 133.322391134 234.593919585 133.322391134 239.096048005 81.8592537717 c 0
 239.589331192 76.2206095455 239.589331192 76.2206095455 239.589331192 71.0281826018 c 0,0,0
 239.589331192 15.9346760991 239.589331192 15.9346760991 184.055664062 11.076171875 c 2
EndSplineSet
Validated: 524291
EndChar

StartChar: gorMKE
Encoding: 57551 57551 64
Width: 448
GlyphClass: 2
Flags: HW
LayerCount: 3
Fore
SplineSet
40 60 m 25,0,-1
 60 40 l 25,2,-1
 60 80 l 25,3,-1
 80 60 l 25,4,-1
 40 60 l 1049,5,-1
40 140 m 25,0,-1
 60 120 l 25,2,-1
 60 160 l 25,3,-1
 80 140 l 25,4,-1
 40 140 l 1049,5,-1
120 60 m 2
 120 0 120 0 60 0 c 0
 0 0 0 0 0 60 c 2
 0 193 l 1
 120 210 l 1
 120 60 l 2
EndSplineSet
Validated: 3
EndChar

StartChar: koloL
Encoding: 57442 57442 65
Width: 266
GlyphClass: 2
Flags: HW
LayerCount: 3
Fore
SplineSet
128 68 m 25,0,-1
 108 88 l 25,2,-1
 108 48 l 25,3,-1
 88 68 l 25,4,-1
 128 68 l 1049,5,-1
178 69 m 25,0,-1
 158 89 l 25,2,-1
 158 49 l 25,3,-1
 138 69 l 25,4,-1
 178 69 l 1049,5,-1
125 221 m 25,0,-1
 105 241 l 25,2,-1
 105 201 l 25,3,-1
 85 221 l 25,4,-1
 125 221 l 1049,5,-1
179 221 m 25,0,-1
 159 241 l 25,2,-1
 159 201 l 25,3,-1
 139 221 l 25,4,-1
 179 221 l 1049,5,-1
76.6935872998 14.1098882747 m 0
 0 50.6926623414 0 50.6926623414 0 162.600097656 c 0
 0 214.200195312 0 214.200195312 42.8002929688 253.000488281 c 0
 85.6005859375 291.80078125 85.6005859375 291.80078125 133.200195313 291.80078125 c 0
 180.799804688 291.80078125 180.799804688 291.80078125 223.600097656 252.200683594 c 0
 266.400390625 212.600585938 266.400390625 212.600585938 266.400390625 162.200683594 c 0
 266.400390625 51.7264199998 266.400390625 51.7264199998 189.230453218 15.073732064 c 0
 160.317232763 -0.545735705113 160.317232763 -0.545735705113 131.740330496 -0.545735705113 c 0,0,0
 104.05917654 -0.545735705113 104.05917654 -0.545735705113 76.6935872998 14.1098882747 c 0
EndSplineSet
Validated: 524291
EndChar

StartChar: gorZD.brzhd
Encoding: 57377 57377 66
Width: 430
GlyphClass: 2
Flags: HW
LayerCount: 3
Back
SplineSet
232.21875 1129.22265625 m 4,0,1
 282.319335938 1129.203125 282.319335938 1129.203125 310.352539062 1162.96972656 c 4,2,3
 337.319335938 1195.203125 337.319335938 1195.203125 337.477539062 1242.48632812 c 4,4,5
 337.319335938 1273.203125 337.319335938 1273.203125 310.352539062 1318.48144531 c 4,6,7
 281.319335938 1366.203125 281.319335938 1366.203125 232.21875 1365.84765625 c 4,8,9
 185.319335938 1366.203125 185.319335938 1366.203125 153.319335938 1322.703125 c 132,-1,10
 121.319335938 1279.203125 121.319335938 1279.203125 121.319335938 1238.703125 c 132,-1,11
 121.319335938 1198.203125 121.319335938 1198.203125 152.819335938 1163.703125 c 132,-1,12
 184.319335938 1129.203125 184.319335938 1129.203125 232.21875 1129.22265625 c 4,0,1
229.791015625 1490.15429688 m 4,13,14
 310.319335938 1490.203125 310.319335938 1490.203125 378.770507812 1427 c 4,15,16
 412.319335938 1396.203125 412.319335938 1396.203125 434.233398438 1348.46191406 c 4,17,18
 455.319335938 1300.203125 455.319335938 1300.203125 455.690429688 1248.203125 c 4,19,20
 455.319335938 1198.203125 455.319335938 1198.203125 432.614257812 1147.61132812 c 4,21,22
 409.319335938 1096.203125 409.319335938 1096.203125 379.581054688 1072.40625 c 4,23,24
 340.319335938 1041.203125 340.319335938 1041.203125 307.11328125 1025.04101562 c 4,25,26
 274.319335938 1009.203125 274.319335938 1009.203125 229.791015625 1009.25195312 c 132,-1,27
 185.319335938 1009.203125 185.319335938 1009.203125 151.251953125 1025.4453125 c 4,28,29
 117.319335938 1041.203125 117.319335938 1041.203125 80 1072.40625 c 4,30,31
 47.3193359375 1100.203125 47.3193359375 1100.203125 26.966796875 1148.42089844 c 4,32,33
 6.3193359375 1197.203125 6.3193359375 1197.203125 6.3193359375 1248.203125 c 4,34,35
 6.3193359375 1360.203125 6.3193359375 1360.203125 80 1427 c 4,36,37
 150.319335938 1490.203125 150.319335938 1490.203125 229.791015625 1490.15429688 c 4,13,14
EndSplineSet
Fore
SplineSet
212 -79 m 25,0,-1
 192 -59 l 25,2,-1
 192 -99 l 25,3,-1
 172 -79 l 25,4,-1
 212 -79 l 1049,5,-1
80 60 m 25,0,-1
 60 80 l 25,2,-1
 60 40 l 25,3,-1
 40 60 l 25,4,-1
 80 60 l 1049,5,-1
73 141 m 1
 149.012820513 216.025641026 149.012820513 216.025641026 149.012820513 331.981262327 c 0,0,0
 149.012820513 453 149.012820513 453 65.5 453 c 0
 -29 453 -29 453 -29 343.5 c 0
 -29 234 -29 234 73 141 c 1
250.085861424 -61.0662677164 m 0
 264.366288955 -105.372420873 264.366288955 -105.372420873 219.069551113 -137.025432311 c 0
 202.445725021 -148.642033915 202.445725021 -148.642033915 180.017395623 -140.822415487 c 0
 157.589066226 -133.002797059 157.589066226 -133.002797059 153.172732003 -128.870939928 c 0
 148.75639778 -124.739082797 148.75639778 -124.739082797 140.589588559 -118.927061191 c 0
 112.38854725 -98.8574039997 112.38854725 -98.8574039997 64.9097285865 -42.6142639348 c 0
 17.4309099234 13.62887613 17.4309099234 13.62887613 14.855146429 16.0474997517 c 0
 12.2793829345 18.4661233733 12.2793829345 18.4661233733 8.85180456427 24.0230569654 c 0
 -148.999999076 214.794888042 -148.999999076 214.794888042 -149 346 c 0
 -149 570 -149 570 66 570 c 0
 281 570 281 570 281 340 c 0
 281 221 281 221 151 58 c 1
 173 18 173 18 199.155214837 -3.77710697049 c 0
 232.740918289 -31.7409169157 232.740918289 -31.7409169157 239.603411105 -38.6034104187 c 0
 246.465903922 -45.4659039217 246.465903922 -45.4659039217 250.085861424 -61.0662677164 c 0
EndSplineSet
Validated: 524291
EndChar

StartChar: dolDv.brzhd
Encoding: 57378 57378 67
Width: 394
GlyphClass: 2
Flags: HW
LayerCount: 3
Fore
SplineSet
80 383 m 25,0,-1
 60 403 l 25,2,-1
 60 363 l 25,3,-1
 40 383 l 25,4,-1
 80 383 l 1049,5,-1
80 60 m 25,0,-1
 60 80 l 25,2,-1
 60 40 l 25,3,-1
 40 60 l 25,4,-1
 80 60 l 1049,5,-1
120 60 m 2
 118.5 -17 l 1
 118.5 -219 118.5 -219 197 -219 c 0
 265.5 -219 265.5 -219 265.5 45.5 c 0
 265.5 310 265.5 310 197.261630217 310 c 0
 129.023260433 310 129.023260433 310 119.901759464 64.3143914866 c 0
 120.000000158 62.1940360006 120.000000158 62.1940360006 120 60 c 2
60 443 m 0
 119.999998493 443 119.999998493 443 120 383 c 0
 120 373.622410503 120 373.622410503 118.335586805 365.61276388 c 1
 118.021513363 326.667657045 l 1
 119.398091758 442 119.398091758 442 197.5 442 c 0
 392.001278772 442 392.001278772 442 392.001278772 53.494888181 c 0,0,0
 392.001278772 -339 392.001278772 -339 195 -339 c 0
 -1.5 -339 -1.5 -339 -2 -18 c 0
 -1.5 236 -1.5 236 -1.5 300.945120177 c 0
 -1.5 365.890240355 -1.5 365.890240355 -0.749999998814 373.259245766 c 0
 2.37269628944e-09 380.628251177 2.37269628944e-09 380.628251177 0 383 c 0
 0 443 0 443 60 443 c 0
EndSplineSet
Validated: 524291
EndChar

StartChar: luU1
Encoding: 57518 57518 69
Width: 587
GlyphClass: 2
Flags: HW
LayerCount: 3
Fore
SplineSet
80 60 m 25,0,-1
 60 80 l 25,2,-1
 60 40 l 25,3,-1
 40 60 l 25,4,-1
 80 60 l 1049,5,-1
546 780 m 25,0,-1
 526 800 l 25,2,-1
 526 760 l 25,3,-1
 506 780 l 25,4,-1
 546 780 l 1049,5,-1
60 120 m 0
 120 120 120 120 120 60 c 0
 120 -44 120 -44 194 -44 c 0
 465 -44 465 -44 465 780 c 1
 466 780 l 1
 466 840 466 840 526 840 c 0
 586 840 586 840 586 780 c 0
 585.007306889 -164.051148225 585.007306889 -164.051148225 196.736846292 -164.051148225 c 0,0,0
 193.878914405 -164.051148225 193.878914405 -164.051148225 191 -164 c 0
 0 -161 0 -161 0 60 c 0
 0 120 0 120 60 120 c 0
EndSplineSet
Validated: 524291
EndChar

StartChar: luU3
Encoding: 57520 57520 70
Width: 882
GlyphClass: 2
Flags: HW
LayerCount: 3
Fore
SplineSet
79 60 m 25,0,-1
 59 80 l 25,2,-1
 59 40 l 25,3,-1
 39 60 l 25,4,-1
 79 60 l 1049,5,-1
835.654296875 508.229492188 m 25,0,-1
 828.333984375 535.549804688 l 25,2,-1
 808.333984375 500.909179688 l 25,3,-1
 801.012695312 528.229492188 l 25,4,-1
 835.654296875 508.229492188 l 1049,5,-1
-1 60 m 0
 -1 120 -1 120 59 120 c 0
 118.998883929 120 118.998883929 120 119.000976562 60 c 0
 120 -44 120 -44 244 -44 c 0
 244.300977665 -44.0016814395 244.300977665 -44.0016814395 244.602417598 -44.0016814395 c 0,0,0
 423.575901229 -44.0016814395 423.575901229 -44.0016814395 765.504882812 548.728515625 c 1
 766.372070312 548.229492188 l 0
 785.391244618 581.172092437 785.391244618 581.172092437 813.237640947 581.172092437 c 0,0,0
 829.314633182 581.172092437 829.314633182 581.172092437 848.333984375 570.19140625 c 0
 881.28930139 551.16412374 881.28930139 551.16412374 881.28930139 523.326371448 c 0,0,0
 881.28930139 507.082434646 881.28930139 507.082434646 870.068089997 487.83855268 c 0
 492.503239286 -164.001528518 492.503239286 -164.001528518 241.767613463 -164.001528518 c 0,0,0
 241.383658029 -164.001528518 241.383658029 -164.001528518 241 -164 c 0
 0 -164 0 -164 -1 60 c 0
EndSplineSet
Validated: 524291
EndChar

StartChar: luU4
Encoding: 57521 57521 71
Width: 452
GlyphClass: 2
Flags: HW
LayerCount: 3
Fore
SplineSet
411 80 m 25,0,-1
 391 100 l 25,2,-1
 391 60 l 25,3,-1
 371 80 l 25,4,-1
 411 80 l 1049,5,-1
80 60 m 25,0,-1
 60 80 l 25,2,-1
 60 40 l 25,3,-1
 40 60 l 25,4,-1
 80 60 l 1049,5,-1
331 80 m 0
 331 140 331 140 391 140 c 0
 451 140 451 140 451 80 c 0
 451 -163.515125612 451 -163.515125612 226.395332259 -163.515125612 c 0,0,0
 225.948111371 -163.515125612 225.948111371 -163.515125612 225.5 -163.514160156 c 0
 0 -163.028320312 0 -163.028320312 0 60 c 0
 0 120 0 120 60 120 c 0
 120 120 120 120 120 60 c 0
 120 -44 120 -44 225.5 -44 c 0
 331 -44 331 -44 331 80 c 0
EndSplineSet
Validated: 524291
EndChar

StartChar: luU5
Encoding: 57522 57522 72
Width: 455
GlyphClass: 2
Flags: HW
LayerCount: 3
Fore
SplineSet
79.3583984375 52.14453125 m 25,0,-1
 72.0380859375 79.46484375 l 25,2,-1
 52.0380859375 44.82421875 l 25,3,-1
 44.7177734375 72.14453125 l 25,4,-1
 79.3583984375 52.14453125 l 1049,5,-1
789.611328125 707.907226562 m 25,0,-1
 782.290039062 735.227539062 l 25,2,-1
 762.290039062 700.586914062 l 25,3,-1
 754.969726562 727.907226562 l 25,4,-1
 789.611328125 707.907226562 l 1049,5,-1
400.859375 608.999023438 m 25,0,-1
 393.538085938 636.3203125 l 25,2,-1
 373.538085938 601.678710938 l 25,3,-1
 366.217773438 628.999023438 l 25,4,-1
 400.859375 608.999023438 l 1049,5,-1
802.290039062 769.869140625 m 0
 835.232639312 750.84996632 835.232639312 750.84996632 835.232639312 723.00356999 c 0,0,0
 835.232639312 706.926577755 835.232639312 706.926577755 824.251953125 687.907226562 c 1
 715.827737667 313.14333809 715.827737667 313.14333809 524.54777919 313.14333809 c 0,0,0
 376.930594188 313.14333809 376.930594188 313.14333809 331 408 c 1
 113.999023438 32.14453125 l 0
 94.9800098375 -0.796994649454 94.9800098375 -0.796994649454 67.1341441817 -0.796994649454 c 0,0,0
 51.0572677558 -0.796994649454 51.0572677558 -0.796994649454 32.0380859375 10.18359375 c 0
 -0.904570383797 29.202800428 -0.904570383797 29.202800428 -0.904570383797 57.0487695538 c 0,0,0
 -0.904570383797 73.1255425096 -0.904570383797 73.1255425096 10.076171875 92.14453125 c 0
 166 362 166 362 331.577148438 648.999023438 c 0
 350.596452236 681.941847979 350.596452236 681.941847979 378.442317268 681.941847979 c 0,0,0
 394.519112222 681.941847979 394.519112222 681.941847979 413.538085938 670.9609375 c 0
 448.084440223 651.015847289 448.084440223 651.015847289 448.084440223 623.745197517 c 0,0,0
 448.084440223 602.811359475 448.084440223 602.811359475 427.727665505 577.560864328 c 0
 422.468709929 569.173623002 422.468709929 569.173623002 422 565.616210938 c 0
 422 429.564067644 422 429.564067644 514.360495041 429.564067644 c 0,0,0
 514.743418571 429.564067644 514.743418571 429.564067644 515.127929688 429.56640625 c 0
 629.04888145 429.04699367 629.04888145 429.04699367 710.167475647 709.519940456 c 1
 708.612100418 727.613014254 708.612100418 727.613014254 721.47060099 749.884632127 c 0
 739.505173557 781.121486413 739.505173557 781.121486413 766.5618339 781.121486413 c 0,0,0
 782.800938483 781.121486413 782.800938483 781.121486413 802.290039062 769.869140625 c 0
EndSplineSet
Validated: 524323
EndChar

StartChar: luUa0
Encoding: 57523 57523 73
Width: 455
GlyphClass: 2
Flags: HW
LayerCount: 3
Fore
SplineSet
41 59.97265625 m 25,0,-1
 61 39.97265625 l 25,2,-1
 61 79.97265625 l 25,3,-1
 81 59.97265625 l 25,4,-1
 41 59.97265625 l 1049,5,-1
375 779.97265625 m 25,0,-1
 395 759.97265625 l 25,2,-1
 395 799.97265625 l 25,3,-1
 415 779.97265625 l 25,4,-1
 375 779.97265625 l 1049,5,-1
121 59.97265625 m 1
 121 -0.02734375 121 -0.02734375 61 -0.02734375 c 0
 1 -0.02734375 1 -0.02734375 1 59.97265625 c 0
 1.99475890985 1003.9988617 1.99475890985 1003.9988617 286.989015686 1003.9988617 c 0,0,0
 288.490566038 1003.9988617 288.490566038 1003.9988617 290 1003.97265625 c 0
 455 1000.97265625 455 1000.97265625 455 779.97265625 c 0
 455 719.97265625 455 719.97265625 395 719.97265625 c 0
 335 719.97265625 335 719.97265625 335 779.97265625 c 0
 335 883.97265625 335 883.97265625 287 883.97265625 c 0
 122 883.97265625 122 883.97265625 122 59.97265625 c 1
 121 59.97265625 l 1
EndSplineSet
Validated: 524291
EndChar

StartChar: luUa1
Encoding: 57524 57524 74
Width: 587
GlyphClass: 2
Flags: HW
LayerCount: 3
Fore
SplineSet
41 59.9501953125 m 25,0,-1
 61 39.9501953125 l 25,2,-1
 61 79.9501953125 l 25,3,-1
 81 59.9501953125 l 25,4,-1
 41 59.9501953125 l 1049,5,-1
507 779.950195312 m 25,0,-1
 527 759.950195312 l 25,2,-1
 527 799.950195312 l 25,3,-1
 547 779.950195312 l 25,4,-1
 507 779.950195312 l 1049,5,-1
121 59.9501953125 m 1
 121 -0.0498046875 121 -0.0498046875 61 -0.0498046875 c 0
 1 -0.0498046875 1 -0.0498046875 1 59.9501953125 c 0
 1.99269311065 1004.00134354 1.99269311065 1004.00134354 390.263153708 1004.00134354 c 0,0,0
 393.121085595 1004.00134354 393.121085595 1004.00134354 396 1003.95019531 c 0
 587 1000.95019531 587 1000.95019531 587 779.950195312 c 0
 587 719.950195312 587 719.950195312 527 719.950195312 c 0
 467 719.950195312 467 719.950195312 467 779.950195312 c 0
 467 883.950195312 467 883.950195312 393 883.950195312 c 0
 122 883.950195312 122 883.950195312 122 59.9501953125 c 1
 121 59.9501953125 l 1
EndSplineSet
Validated: 524291
EndChar

StartChar: luUa2
Encoding: 57525 57525 75
Width: 813
GlyphClass: 2
Flags: HW
LayerCount: 3
Fore
SplineSet
693.135742188 521.096679688 m 25,0,-1
 711.31640625 499.4296875 l 25,2,-1
 714.802734375 539.27734375 l 25,3,-1
 732.983398438 517.610351562 l 25,4,-1
 693.135742188 521.096679688 l 1049,5,-1
46.48828125 72.8291015625 m 25,0,-1
 53.80859375 45.5087890625 l 25,2,-1
 73.80859375 80.1494140625 l 25,3,-1
 81.12890625 52.8291015625 l 25,4,-1
 46.48828125 72.8291015625 l 1049,5,-1
655.300335197 537.414654377 m 1
 658.535998598 560.348994373 658.535998598 560.348994373 658.535998598 579.552108101 c 0,0,0
 658.535998598 639.946581071 658.535998598 639.946581071 626.53125 663.434570312 c 0
 617.631828512 669.789083668 617.631828512 669.789083668 606.146233431 669.789083668 c 0,0,0
 491.108897387 669.789083668 491.108897387 669.789083668 116.63671875 32.3291015625 c 1
 115.770507812 32.8291015625 l 0
 96.7513335073 -0.113498686725 96.7513335073 -0.113498686725 68.9049371778 -0.113498686725 c 0,0,0
 52.827944943 -0.113498686725 52.827944943 -0.113498686725 33.80859375 10.8671875 c 0
 0.857416447915 29.8913137053 0.857416447915 29.8913137053 0.857416447915 57.7324455695 c 0,0,0
 0.857416447915 73.915531968 0.857416447915 73.915531968 11.9906127564 93.077615261 c 0
 410.423606238 785.675284725 410.423606238 785.675284725 610.502079773 785.675284725 c 0,0,0
 640.181985354 785.675284725 640.181985354 785.675284725 665.497070312 770.434570312 c 0
 775.018598138 704.721653617 775.018598138 704.721653617 775.018598138 557.396494044 c 0,0,0
 775.018598138 536.575305476 775.018598138 536.575305476 772.831054688 514.124023438 c 0
 768.05335654 459.516023366 768.05335654 459.516023366 713.721841338 459.516023366 c 0,0,0
 708.584533178 459.516023366 708.584533178 459.516023366 703.004183207 460.004252704 c 0
 651.798196669 464.484305933 651.798196669 464.484305933 651.798196669 510.503629363 c 0,0,0
 651.798196669 522.538641178 651.798196669 522.538641178 655.300335197 537.414654377 c 1
EndSplineSet
Validated: 524291
EndChar

StartChar: luUa3
Encoding: 57526 57526 76
Width: 882
GlyphClass: 2
Flags: HW
LayerCount: 3
Fore
SplineSet
45.62109375 74.095703125 m 25,0,-1
 52.94140625 46.775390625 l 25,2,-1
 72.94140625 81.416015625 l 25,3,-1
 80.2626953125 54.095703125 l 25,4,-1
 45.62109375 74.095703125 l 1049,5,-1
802.275390625 522.325195312 m 25,0,-1
 822.275390625 502.325195312 l 25,2,-1
 822.275390625 542.325195312 l 25,3,-1
 842.275390625 522.325195312 l 25,4,-1
 802.275390625 522.325195312 l 1049,5,-1
114.903320312 34.095703125 m 0
 95.8841460073 1.15310287578 95.8841460073 1.15310287578 68.0377496778 1.15310287578 c 0,0,0
 51.960757443 1.15310287578 51.960757443 1.15310287578 32.94140625 12.1337890625 c 0
 -0.013910741788 31.1610715592 -0.013910741788 31.1610715592 -0.013910741788 58.9988238648 c 0,0,0
 -0.013910741788 75.2427606641 -0.013910741788 75.2427606641 11.2073006279 94.486642632 c 0
 388.772151339 746.326723831 388.772151339 746.326723831 639.507777162 746.326723831 c 0,0,0
 639.891732596 746.326723831 639.891732596 746.326723831 640.275390625 746.325195312 c 0
 881.275390625 746.325195312 881.275390625 746.325195312 882.275390625 522.325195312 c 0
 882.275390625 462.325195312 882.275390625 462.325195312 822.275390625 462.325195312 c 0
 762.276506696 462.325195312 762.276506696 462.325195312 762.274414062 522.325195312 c 0
 761.275390625 626.325195312 761.275390625 626.325195312 637.275390625 626.325195312 c 0
 636.97441296 626.326876752 636.97441296 626.326876752 636.672973027 626.326876752 c 0,0,0
 457.699489396 626.326876752 457.699489396 626.326876752 115.770507812 33.5966796875 c 1
 114.903320312 34.095703125 l 0
EndSplineSet
Validated: 524291
EndChar

StartChar: luUa4
Encoding: 57527 57527 77
Width: 451
GlyphClass: 2
Flags: HW
LayerCount: 3
Fore
SplineSet
371 79 m 25,0,-1
 391 59 l 25,2,-1
 391 99 l 25,3,-1
 411 79 l 25,4,-1
 371 79 l 1049,5,-1
40 59 m 25,0,-1
 60 39 l 25,2,-1
 60 79 l 25,3,-1
 80 59 l 25,4,-1
 40 59 l 1049,5,-1
451 79 m 0
 451 19 451 19 391 19 c 0
 331 19 331 19 331 79 c 0
 331 183 331 183 225.5 183 c 0
 120 183 120 183 120 59 c 0
 120 -1 120 -1 60 -1 c 0
 0 -1 0 -1 0 59 c 0
 0 302.515125612 0 302.515125612 224.604667741 302.515125612 c 0,0,0
 225.051888629 302.515125612 225.051888629 302.515125612 225.5 302.514160156 c 0
 451 302.028320312 451 302.028320312 451 79 c 0
EndSplineSet
Validated: 524291
EndChar

StartChar: luKLY
Encoding: 57454 57454 78
Width: 333
GlyphClass: 2
Flags: HW
LayerCount: 3
Fore
SplineSet
179 154 m 25,0,-1
 159 174 l 25,2,-1
 159 134 l 25,3,-1
 139 154 l 25,4,-1
 179 154 l 1049,5,-1
125 154 m 25,0,-1
 105 174 l 25,2,-1
 105 134 l 25,3,-1
 85 154 l 25,4,-1
 125 154 l 1049,5,-1
178 2 m 25,0,-1
 158 22 l 25,2,-1
 158 -18 l 25,3,-1
 138 2 l 25,4,-1
 178 2 l 1049,5,-1
128 1 m 25,0,-1
 108 21 l 25,2,-1
 108 -19 l 25,3,-1
 88 1 l 25,4,-1
 128 1 l 1049,5,-1
277.501953125 60 m 25,0,-1
 257.501953125 80 l 25,2,-1
 257.501953125 40 l 25,3,-1
 237.501953125 60 l 25,4,-1
 277.501953125 60 l 1049,5,-1
293.501953125 174 m 25,0,-1
 273.501953125 194 l 25,2,-1
 273.501953125 154 l 25,3,-1
 253.501953125 174 l 25,4,-1
 293.501953125 174 l 1049,5,-1
215.440434932 192.038250748 m 1
 225.249911255 234 225.249911255 234 273.501953125 234 c 0
 333.501953125 234 333.501953125 234 333.501953125 174 c 1
 333.626953125 174 l 1
 333.501953125 171 333.501953125 171 333.251953125 139.625 c 0
 333.487224039 -48.8533459127 333.487224039 -48.8533459127 166.509687623 -62.0123230201 c 1
 149.448109472 -67.8740574719 149.448109472 -67.8740574719 132.217248322 -67.8740574719 c 0,0,0
 88.6497455751 -67.8740574719 88.6497455751 -67.8740574719 44 -30.3994140625 c 0
 0 6.26687961534 0 6.26687961534 0 76.7335374639 c 0
 0 147.200195312 0 147.200195312 42.8002929688 186.000488281 c 0
 85.6005859375 224.80078125 85.6005859375 224.80078125 131.60301351 224.80078125 c 0
 177.605441082 224.80078125 177.605441082 224.80078125 215.440434932 192.038250748 c 1
EndSplineSet
Validated: 524323
EndChar

StartChar: dolMK45
Encoding: 7 7 79
Width: 666
GlyphClass: 2
Flags: HW
LayerCount: 3
Fore
SplineSet
119.46875 28 m 1
 0 -80 l 1
 0 81 l 2
 0 140 0 140 60 140 c 0
 120 140 120 140 120 81 c 0
 120 54 120 54 119.46875 28 c 1
EndSplineSet
Refer: 46 57346 N 1 0 0 1 0.4688 0 2
Refer: 46 57346 N 1 0 0 1 0.46875 20 2
Validated: 4718603
EndChar

StartChar: dolTW.alt
Encoding: 7 7 80
Width: 523
GlyphClass: 2
Flags: HW
LayerCount: 3
Fore
SplineSet
80 60 m 25,0,-1
 60 80 l 25,2,-1
 60 40 l 25,3,-1
 40 60 l 25,4,-1
 80 60 l 1049,5,-1
-39 120 m 25,0,-1
 -59 140 l 25,2,-1
 -59 100 l 25,3,-1
 -79 120 l 25,4,-1
 -39 120 l 1049,5,-1
-119 120 m 0
 -119 179.999998613 -119 179.999998613 -59 180 c 0
 1 180 1 180 1 120 c 0
 1 116.383527757 1 116.383527757 0.752457947819 112.970504626 c 2
 1 110 l 1
 -8.4970583145 54.005883371 -8.4970583145 54.005883371 -4.08309675828 62.8338064834 c 0
 0.330864797948 71.6617295959 0.330864797948 71.6617295959 1.55919445858 77.7596559657 c 0
 8.4425159987 111.931254419 8.4425159987 111.931254419 38.2212579993 117.965627209 c 0
 53.562005066 121.07428058 53.562005066 121.07428058 66.0597695641 121.07428058 c 0,0,0
 121 121.07428058 121 121.07428058 121 61 c 0
 120 -53 120 -53 0 -52.8076171875 c 0
 -119 -53 -119 -53 -119 118 c 0
 -119 118.532597928 -119 118.532597928 -118.995793459 119.060546897 c 0
 -119.000000336 119.528544679 -119.000000336 119.528544679 -119 120 c 0
EndSplineSet
Validated: 4718627
EndChar

StartChar: gorMK45
Encoding: 57552 57552 81
Width: 120
GlyphClass: 2
Flags: HW
LayerCount: 3
Fore
SplineSet
41 60 m 25,0,-1
 61 40 l 25,2,-1
 61 80 l 25,3,-1
 81 60 l 25,4,-1
 41 60 l 1049,5,-1
41 80 m 25,0,-1
 61 60 l 25,2,-1
 61 100 l 25,3,-1
 81 80 l 25,4,-1
 41 80 l 1049,5,-1
1 60 m 1
 1.49319714086 70.5379785337 l 1
 0.374511644509 80.8495012631 0.374511644509 80.8495012631 1.08227773419 91.2869935141 c 0
 1.79004382388 101.724485765 1.79004382388 101.724485765 2 112 c 1
 121.46875 220 l 1
 121.46875 59 l 2
 121.46875 0 121.46875 0 61.46875 0 c 0
 61.3459436321 0 61.3459436321 0 61.223388612 0.000251104044198 c 0
 61.1117899507 0.000251104044198 61.1117899507 0.000251104044198 61 0 c 0
 1.0000022001 0 1.0000022001 0 1 60 c 1
EndSplineSet
Validated: 524291
EndChar

StartChar: okredzi
Encoding: 57504 57504 82
Width: 301
GlyphClass: 2
Flags: HW
LayerCount: 3
Fore
SplineSet
84 60 m 25,0,-1
 64 80 l 25,2,-1
 64 40 l 25,3,-1
 44 60 l 25,4,-1
 84 60 l 1049,5,-1
260 246 m 25,0,-1
 240 266 l 25,2,-1
 240 226 l 25,3,-1
 220 246 l 25,4,-1
 260 246 l 1049,5,-1
80 436 m 25,0,-1
 60 456 l 25,2,-1
 60 416 l 25,3,-1
 40 436 l 25,4,-1
 80 436 l 1049,5,-1
63.8600589044 119.999899977 m 0
 63.8600589044 120.175731238 63.8600589044 120.175731238 63.861328125 120.3515625 c 0
 113 120 113 120 145.191429721 150.77073701 c 0
 177.382859441 181.54147402 177.382859441 181.54147402 180.26843123 238.68867031 c 0
 179.625875943 247.175336046 179.625875943 247.175336046 179.124286501 273.683176925 c 0
 178.622697059 300.191017804 178.622697059 300.191017804 139.66127033 336.808054314 c 0
 97.9600799242 375.999997212 97.9600799242 375.999997212 60 376 c 0
 0 376 0 376 0 435.824944802 c 0
 0 495.649889605 0 495.649889605 59.4291817016 495.998330282 c 0
 59.4291817016 496.334126078 59.4291817016 496.334126078 59.4267578125 496.669921875 c 1
 159 496 159 496 230 426 c 0
 301.503472222 355.503618936 301.503472222 355.503618936 301.503472222 247.515625 c 0,0,0
 301.503472222 141.506944444 301.503472222 141.506944444 230.5 71 c 0
 159.001483324 0.00147295084086 159.001483324 0.00147295084086 63.4309259723 0.00147295084086 c 0,0,0
 4 0.00193092963898 4 0.00193092963898 4 60.1110002229 c 0
 4 119.914284023 4 119.914284023 63.8600589044 119.999899977 c 0
EndSplineSet
Validated: 524291
EndChar

StartChar: okrodzi
Encoding: 57505 57505 83
Width: 386
GlyphClass: 2
Flags: HW
LayerCount: 3
Fore
SplineSet
157 60 m 25,0,-1
 137 80 l 25,2,-1
 137 40 l 25,3,-1
 117 60 l 25,4,-1
 157 60 l 1049,5,-1
328 165 m 25,0,-1
 308 185 l 25,2,-1
 308 145 l 25,3,-1
 288 165 l 25,4,-1
 328 165 l 1049,5,-1
80 391 m 25,0,-1
 60 411 l 25,2,-1
 60 371 l 25,3,-1
 40 391 l 25,4,-1
 80 391 l 1049,5,-1
136.902051276 119.999951015 m 0
 136.902051276 120.175756757 136.902051276 120.175756757 136.903320312 120.3515625 c 0
 137.423989431 120.348115058 137.423989431 120.348115058 137.943110713 120.348115058 c 0,0,0
 190.362824145 120.348115058 190.362824145 120.348115058 227 155.5 c 0
 264.504854369 191.4843873 264.504854369 191.4843873 264.504854369 249.105429352 c 0,0,0
 264.504854369 305.412621359 264.504854369 305.412621359 214 347.5 c 0
 191.404176041 366.329853299 191.404176041 366.329853299 165.094408077 366.329853299 c 0,0,0
 132.021603022 366.329853299 132.021603022 366.329853299 93.080078125 336.575195312 c 1
 92.4216743155 337.65892075 l 1
 79.3106075001 331 79.3106075001 331 60 331 c 0
 0 331 0 331 0 391 c 0
 0 429.554931775 0 429.554931775 28.7672334886 444.289933154 c 1
 91.0993788153 492.367747974 91.0993788153 492.367747974 158.317807038 492.367747974 c 0,0,0
 185.607554209 492.367747974 185.607554209 492.367747974 213.702681538 484.443336129 c 0
 311 457 311 457 362.468269133 343.794077694 c 0
 390.107466534 283.000876636 390.107466534 283.000876636 390.107466534 229.715062513 c 0,0,0
 390.107466534 158.672637184 390.107466534 158.672637184 340.97848336 100.974676277 c 0
 255.00107675 0.00126455498969 255.00107675 0.00126455498969 136.471920781 0.00126455498969 c 0,0,0
 77 0.00158179952872 77 0.00158179952872 77 60.112565244 c 0
 77 119.940012902 77 119.940012902 136.902051276 119.999951015 c 0
EndSplineSet
Validated: 524291
EndChar

StartChar: okreci
Encoding: 57497 57497 84
Width: 411
GlyphClass: 2
Flags: HW
LayerCount: 3
Fore
SplineSet
60 738 m 25,49,-1
 60 698 l 25,50,-1
 40 718 l 25,51,-1
 80 718 l 1049,52,-1
60 80 m 25,33,-1
 60 40 l 25,34,-1
 40 60 l 25,35,-1
 80 60 l 1049,36,-1
351 422 m 25,17,-1
 351 382 l 25,18,-1
 331 402 l 25,19,-1
 371 402 l 1049,20,-1
0 718 m 0
 0 778 0 778 60 778 c 0
 60.0660219068 778 60.0660219068 778 60.1319770959 777.999911043 c 1
 60.1319770959 778.376908647 60.1319770959 778.376908647 60.1328125 778.75390625 c 0
 60.4599446097 778.754436352 60.4599446097 778.754436352 60.7868337354 778.754436352 c 0,0,0
 212.214329675 778.754436352 212.214329675 778.754436352 311.5 665 c 0
 411 551 411 551 411 398 c 0
 411 245 411 245 315.097071442 126.203231474 c 0
 213.215003122 0 213.215003122 0 60 0 c 1
 0 0 0 0 0 60 c 0
 0 120 0 120 60 120 c 0
 65.797897618 120 65.797897618 120 71.0812704891 119.313967004 c 0
 180.204173239 125.534486406 180.204173239 125.534486406 263.5 255 c 0
 290.161337132 297.096848103 290.161337132 297.096848103 290.580668497 346.136398973 c 0
 290.999999861 395.175949843 290.999999861 395.175949843 290.999999931 401.889716175 c 0
 291 408.603482506 291 408.603482506 290.622176491 457.493073158 c 0
 290.244352982 506.38266381 290.244352982 506.38266381 264 542 c 0
 181.199610992 653.352247286 181.199610992 653.352247286 71.2256016091 658.622112653 c 0
 65.902398205 658.000000072 65.902398205 658.000000072 60 658 c 0
 0 658 0 658 0 718 c 0
EndSplineSet
Validated: 524291
EndChar

StartChar: luNgor
Encoding: 57529 57529 85
Width: 452
VWidth: 2998
GlyphClass: 2
Flags: HW
LayerCount: 3
Fore
SplineSet
372 104.995117188 m 25,0,-1
 392 84.9951171875 l 25,2,-1
 392 124.995117188 l 25,3,-1
 412 104.995117188 l 25,4,-1
 372 104.995117188 l 1049,5,-1
40 59.9951171875 m 25,0,-1
 60 39.9951171875 l 25,2,-1
 60 79.9951171875 l 25,3,-1
 80 59.9951171875 l 25,4,-1
 40 59.9951171875 l 1049,5,-1
452 104.995117188 m 0
 452 44.9951171875 452 44.9951171875 392 44.9951171875 c 0
 357.050151482 44.9951171875 357.050151482 44.9951171875 341.330663235 69.2285265296 c 1
 341 68.9951171875 l 1
 304.145299145 110.03785223 304.145299145 110.03785223 245.892249251 110.03785223 c 0,0,0
 234.598290598 110.03785223 234.598290598 110.03785223 222.5 108.495117188 c 0
 148 98.9951171875 148 98.9951171875 117 35.9951171875 c 1
 116.434359247 36.2332817149 l 1
 104.179551098 -0.00488281249997 104.179551098 -0.00488281249997 60 -0.0048828125 c 0
 0 -0.0048828125 0 -0.0048828125 0 59.9951171875 c 0
 0 73.297957342 0 73.297957342 3.34940342489 83.847999956 c 1
 3 83.9951171875 l 1
 3.73308582459 85.5834698074 3.73308582459 85.5834698074 5.79180909829 90.7254716955 c 0
 7.85053237199 95.8674735836 7.85053237199 95.8674735836 11.5798943285 100.322977621 c 0
 15.309256285 104.778481659 15.309256285 104.778481659 17 106.864257812 c 0
 92 216.995117188 92 216.995117188 198 230.995117188 c 0
 231.652538219 235.518325072 231.652538219 235.518325072 261.115930526 235.518325072 c 0,0,0
 383.983210184 235.518325072 383.983210184 235.518325072 434 156.858398438 c 0
 437.315246027 150.341220457 437.315246027 150.341220457 444.657622688 139.546862382 c 0
 451.99999935 128.752504307 451.99999935 128.752504307 452 104.995117188 c 0
EndSplineSet
Validated: 524291
EndChar

StartChar: luNOdol
Encoding: 57530 57530 86
Width: 776
GlyphClass: 2
Flags: HW
LayerCount: 3
Fore
SplineSet
80 60 m 25,0,-1
 60 80 l 25,2,-1
 60 40 l 25,3,-1
 40 60 l 25,4,-1
 80 60 l 1049,5,-1
736 105 m 25,0,-1
 716 125 l 25,2,-1
 716 85 l 25,3,-1
 696 105 l 25,4,-1
 736 105 l 1049,5,-1
60 120 m 0
 94.9498485183 120 94.9498485183 120 110.669336765 95.7665906579 c 1
 111 96 l 1
 203.885106383 -1.43829787234 203.885106383 -1.43829787234 361.038026256 -1.43829787234 c 0,0,0
 376.459574468 -1.43829787234 376.459574468 -1.43829787234 392.5 -0.5 c 0
 572 10 572 10 659 129 c 1
 659.565640753 128.761835473 l 1
 671.820448902 165 671.820448902 165 716 165 c 0
 776 165 776 165 776 105 c 0
 776 91.6971598455 776 91.6971598455 772.650596575 81.1471172315 c 1
 773 81 l 1
 772.344183629 79.4260407085 772.344183629 79.4260407085 770.276508385 74.4495542216 c 0
 768.029198748 69.040723182 768.029198748 69.040723182 743 34.130859375 c 0
 631.08203125 -122.6875 631.08203125 -122.6875 382.541015625 -127.84375 c 0
 373.780925357 -128.02548747 373.780925357 -128.02548747 365.185488723 -128.02548747 c 0,0,0
 129.911457638 -128.02548747 129.911457638 -128.02548747 18 8.13671875 c 0
 -2.22239679469e-08 34.1168937092 -2.22239679469e-08 34.1168937092 0 60 c 0
 0 120 0 120 60 120 c 0
EndSplineSet
Validated: 524291
EndChar

StartChar: luONgor
Encoding: 57531 57531 87
Width: 776
GlyphClass: 2
Flags: HW
LayerCount: 3
Fore
SplineSet
40 59.5869140625 m 25,0,-1
 60 39.5869140625 l 25,2,-1
 60 79.5869140625 l 25,3,-1
 80 59.5869140625 l 25,4,-1
 40 59.5869140625 l 1049,5,-1
696 104.586914062 m 25,0,-1
 716 84.5869140625 l 25,2,-1
 716 124.586914062 l 25,3,-1
 736 104.586914062 l 25,4,-1
 696 104.586914062 l 1049,5,-1
116.434359247 35.8250785899 m 1
 104.179551098 -0.4130859375 104.179551098 -0.4130859375 60 -0.4130859375 c 0
 0 -0.4130859375 0 -0.4130859375 0 59.5869140625 c 0
 0 72.889754217 0 72.889754217 3.34940342489 83.439796831 c 1
 3 83.5869140625 l 1
 3.65581637148 85.160873354 3.65581637148 85.160873354 5.72349161532 90.1373598409 c 0
 7.97080125196 95.5461908804 7.97080125196 95.5461908804 33 130.456054688 c 0
 144.91796875 287.274414062 144.91796875 287.274414062 393.458984375 292.430664062 c 0
 402.219074643 292.612401533 402.219074643 292.612401533 410.814511277 292.612401533 c 0,0,0
 646.088542362 292.612401533 646.088542362 292.612401533 758 156.450195312 c 0
 776.000000022 130.470020353 776.000000022 130.470020353 776 104.586914062 c 0
 776 44.5869140625 776 44.5869140625 716 44.5869140625 c 0
 681.050151482 44.5869140625 681.050151482 44.5869140625 665.330663235 68.8203234046 c 1
 665 68.5869140625 l 1
 572.114893617 166.025211935 572.114893617 166.025211935 414.961973744 166.025211935 c 0,0,0
 399.540425532 166.025211935 399.540425532 166.025211935 383.5 165.086914062 c 0
 204 154.586914062 204 154.586914062 117 35.5869140625 c 1
 116.434359247 35.8250785899 l 1
EndSplineSet
Validated: 524291
EndChar

StartChar: OstrI
Encoding: 57553 57553 88
Width: 120
GlyphClass: 2
Flags: HW
LayerCount: 3
Fore
SplineSet
80 140 m 25,0,-1
 60 160 l 25,2,-1
 60 120 l 25,3,-1
 40 140 l 25,4,-1
 80 140 l 1049,5,-1
80 59 m 25,0,-1
 60 79 l 25,2,-1
 60 39 l 25,3,-1
 40 59 l 25,4,-1
 80 59 l 1049,5,-1
0 140 m 2
 0 200 0 200 60 200 c 0
 120 200 120 200 120 140 c 2
 120 -85 l 1
 21.725788393 9.17945279 l 1
 0 30 l 1
 0 140 l 2
EndSplineSet
Validated: 524291
EndChar

StartChar: gorLUK
Encoding: 57546 57546 89
Width: 450
GlyphClass: 2
Flags: HW
LayerCount: 3
Fore
SplineSet
40 60.994140625 m 25,0,-1
 60 40.994140625 l 25,2,-1
 60 80.994140625 l 25,3,-1
 80 60.994140625 l 25,4,-1
 40 60.994140625 l 1049,5,-1
370 24.994140625 m 25,0,-1
 390 4.994140625 l 25,2,-1
 390 44.994140625 l 25,3,-1
 410 24.994140625 l 25,4,-1
 370 24.994140625 l 1049,5,-1
115.02664908 33.502738403 m 1
 101.418297779 0.994140625 101.418297779 0.994140625 60 0.994140625 c 0
 0 0.994140625 0 0.994140625 0 60.994140625 c 0
 0 78.1325464688 0 78.1325464688 5.55929295544 90.7018974591 c 1
 5 90.994140625 l 1
 82 224.994140625 82 224.994140625 215 224.994140625 c 0
 216.415662651 225.000164721 216.415662651 225.000164721 217.822797213 225.000164721 c 0,0,0
 450 225.000164721 450 225.000164721 450 60.994140625 c 2
 450 24.994140625 l 1
 449.994858978 23.9941834669 l 0
 449.385843583 -35.005859375 449.385843583 -35.005859375 389.692921791 -35.005859375 c 0
 330 -35.005859375 330 -35.005859375 330 24.994140625 c 2
 330 60.994140625 l 2
 330 104.994140625 330 104.994140625 214 104.994140625 c 0
 152 104.994140625 152 104.994140625 116 32.994140625 c 1
 115.02664908 33.502738403 l 1
EndSplineSet
Validated: 4718595
EndChar

StartChar: gorOMluk
Encoding: 57547 57547 90
Width: 780
GlyphClass: 2
Flags: HW
LayerCount: 3
Fore
SplineSet
700 23 m 25,0,-1
 720 3 l 25,2,-1
 720 43 l 25,3,-1
 740 23 l 25,4,-1
 700 23 l 1049,5,-1
40 60 m 25,0,-1
 60 40 l 25,2,-1
 60 80 l 25,3,-1
 80 60 l 25,4,-1
 40 60 l 1049,5,-1
779.994858978 22.0000428419 m 0
 779.385843583 -37 779.385843583 -37 719.692921791 -37 c 1
 660 -37 660 -37 660 23 c 2
 660 59 l 2
 660 201.006944444 660 201.006944444 378.94458912 201.006944444 c 0,0,0
 376.979166667 201.006944444 376.979166667 201.006944444 375 201 c 0
 198.263222206 200.012643699 198.263222206 200.012643699 116.089074393 35.2467129386 c 1
 103.454184902 1.42108547152e-14 103.454184902 1.42108547152e-14 60 0 c 0
 0 0 0 0 0 60 c 0
 0 76.5845027431 0 76.5845027431 5.20575378682 88.8905163336 c 1
 5 89 l 1
 5.75566207674 90.3796557613 5.75566207674 90.3796557613 6.71993514066 92.2500835097 c 0
 7.68420820457 94.120511258 7.68420820457 94.120511258 9.06348406454 96.3170659407 c 0
 140.656017052 330.015298081 140.656017052 330.015298081 376 331 c 0
 378.927536232 331.014492754 378.927536232 331.014492754 381.833858433 331.014492754 c 0,0,0
 780 331.014492754 780 331.014492754 780 59 c 2
 780 23 l 1
 779.994858978 22.0000428419 l 0
EndSplineSet
Validated: 524291
EndChar

StartChar: dolMOluk
Encoding: 57548 57548 91
Width: 780
GlyphClass: 2
Flags: HW
LayerCount: 3
Fore
SplineSet
740 23.0146484375 m 25,0,-1
 720 43.0146484375 l 25,2,-1
 720 3.0146484375 l 25,3,-1
 700 23.0146484375 l 25,4,-1
 740 23.0146484375 l 1049,5,-1
80 60.0146484375 m 25,0,-1
 60 80.0146484375 l 25,2,-1
 60 40.0146484375 l 25,3,-1
 40 60.0146484375 l 25,4,-1
 80 60.0146484375 l 1049,5,-1
0.00514102238915 61.0146055956 m 0
 0.614156417495 120.014648438 0.614156417495 120.014648438 60.3070782087 120.014648438 c 0
 120 120.014648438 120 120.014648438 120 60.0146484375 c 2
 120 24.0146484375 l 2
 120 -117.992296007 120 -117.992296007 401.05541088 -117.992296007 c 0,0,0
 403.020833333 -117.992296007 403.020833333 -117.992296007 405 -117.985351562 c 0
 581.736777794 -116.997995262 581.736777794 -116.997995262 663.910925607 47.7679354989 c 1
 676.545815098 83.0146484375 676.545815098 83.0146484375 720 83.0146484375 c 0
 780 83.0146484375 780 83.0146484375 780 23.0146484375 c 0
 780 6.43014569442 780 6.43014569442 774.794246213 -5.87586789612 c 1
 775 -5.9853515625 l 1
 774.244337923 -7.36500732382 774.244337923 -7.36500732382 773.280064859 -9.23543507211 c 0
 772.315791795 -11.1058628204 772.315791795 -11.1058628204 770.936515935 -13.3024175032 c 0
 639.343982948 -247.000649644 639.343982948 -247.000649644 404 -247.985351562 c 0
 401.072463768 -247.999844316 401.072463768 -247.999844316 398.166141567 -247.999844316 c 0,0,0
 0 -247.999844316 0 -247.999844316 0 24.0146484375 c 2
 0 60.0146484375 l 1
 0.00514102238915 61.0146055956 l 0
EndSplineSet
Validated: 524291
EndChar

StartChar: k
Encoding: 107 107 92
Width: 120
Flags: HW
LayerCount: 3
Fore
SplineSet
80 1649 m 25,0,-1
 60 1669 l 25,2,-1
 60 1629 l 25,3,-1
 40 1649 l 25,4,-1
 80 1649 l 1049,5,-1
80 60 m 25,0,-1
 60 80 l 25,2,-1
 60 40 l 25,3,-1
 40 60 l 25,4,-1
 80 60 l 1049,5,-1
0 60 m 1025
60 1709 m 0
 120.000001825 1709 120.000001825 1709 120 1649 c 0
 120 1648.75931509 120 1648.75931509 119.998905429 1648.51953131 c 0
 119.998905429 1648.26032112 119.998905429 1648.26032112 120 1648 c 2
 120 60 l 2
 120 0 120 0 60 0 c 0
 0 0 0 0 0 60 c 2
 0 1648 l 2
 0 1648.26032112 0 1648.26032112 0.00109457119569 1648.51953131 c 0
 0.00109457119569 1648.75931509 0.00109457119569 1648.75931509 0 1649 c 0
 0 1709 0 1709 60 1709 c 0
EndSplineSet
Validated: 524291
EndChar

StartChar: g
Encoding: 103 103 93
Width: 120
Flags: HW
LayerCount: 3
Fore
SplineSet
80 900 m 25,0,-1
 60 920 l 25,2,-1
 60 880 l 25,3,-1
 40 900 l 25,4,-1
 80 900 l 1049,5,-1
80 60 m 25,0,-1
 60 80 l 25,2,-1
 60 40 l 25,3,-1
 40 60 l 25,4,-1
 80 60 l 1049,5,-1
0 60 m 1029
60 960 m 0
 120.000001825 960 120.000001825 960 120 900 c 0
 120 899.759315089 120 899.759315089 119.998905429 899.519531308 c 0
 119.998905429 899.260321118 119.998905429 899.260321118 120 899 c 2
 120 60 l 2
 120 0 120 0 60 0 c 0
 0 0 0 0 0 60 c 2
 0 899 l 2
 0 899.260321118 0 899.260321118 0.00109457119532 899.519531309 c 0
 0.00109457119532 899.75931509 0.00109457119532 899.75931509 0 900 c 0
 0 960 0 960 60 960 c 0
EndSplineSet
Validated: 524291
EndChar

StartChar: i
Encoding: 105 105 94
Width: 121
Flags: HW
LayerCount: 3
Fore
SplineSet
80 440 m 25,0,-1
 60 460 l 25,2,-1
 60 420 l 25,3,-1
 40 440 l 25,4,-1
 80 440 l 1049,5,-1
81 60 m 25,0,-1
 61 80 l 25,2,-1
 61 40 l 25,3,-1
 41 60 l 25,4,-1
 81 60 l 1049,5,-1
1 60 m 1025
0 440 m 0
 0 499.999996475 0 499.999996475 60 500 c 0
 60.2387173872 500 60.2387173872 500 60.4765625461 499.998835646 c 0
 60.7377079607 499.998835646 60.7377079607 499.998835646 61 500 c 0
 121 500 121 500 121 439 c 2
 121 60 l 2
 121 0 121 0 61 0 c 0
 1 0 1 0 1 60 c 2
 1 426.28434649 l 1
 0 432.73123476 0 432.73123476 0 440 c 0
EndSplineSet
Validated: 524291
EndChar

StartChar: e
Encoding: 101 101 95
Width: 957
Flags: HW
LayerCount: 3
Fore
SplineSet
898.739257812 116.116210938 m 25,0,-1
 916.919921875 137.783203125 l 25,2,-1
 877.072265625 134.296875 l 25,3,-1
 895.252929688 155.963867188 l 25,4,-1
 898.739257812 116.116210938 l 1049,5,-1
61.935546875 42.9052734375 m 25,0,-1
 80.1162109375 64.5732421875 l 25,2,-1
 40.2685546875 61.0869140625 l 25,3,-1
 58.44921875 82.75390625 l 25,4,-1
 61.935546875 42.9052734375 l 1049,5,-1
54.962890625 122.6015625 m 1029
890.770507812 195.724609375 m 2
 895.734027522 196.158855531 895.734027522 196.158855531 900.327014532 196.158855531 c 0,0,0
 951.965233077 196.158855531 951.965233077 196.158855531 956.767579968 141.26951024 c 0
 957.181955497 136.533325613 957.181955497 136.533325613 957.181955497 132.139047748 c 0,0,0
 957.181955497 81.0767832843 957.181955497 81.0767832843 901.229492188 76.181640625 c 2
 65.421875 3.0576171875 l 2
 60.6131023021 2.63689769794 60.6131023021 2.63689769794 56.1573605475 2.63689769794 c 0,0,0
 5.22877313867 2.63689769794 5.22877313867 2.63689769794 0.4208984375 57.6005859375 c 0
 0.000172627129625 62.4093523146 0.000172627129625 62.4093523146 0.000172627129625 66.8650897824 c 0,0,0
 0.000172627129625 117.792796123 0.000172627129625 117.792796123 54.962890625 122.6015625 c 2
 890.770507812 195.724609375 l 2
EndSplineSet
Validated: 524291
EndChar

StartChar: u
Encoding: 117 117 96
Width: 454
Flags: HW
LayerCount: 3
Fore
SplineSet
414 780 m 25,0,-1
 394 800 l 25,2,-1
 394 760 l 25,3,-1
 374 780 l 25,4,-1
 414 780 l 1049,5,-1
80 60 m 25,0,-1
 60 80 l 25,2,-1
 60 40 l 25,3,-1
 40 60 l 25,4,-1
 80 60 l 1049,5,-1
334 780 m 1
 334 840 334 840 394 840 c 0
 454 840 454 840 454 780 c 0
 453.00524109 -164.026205451 453.00524109 -164.026205451 168.010984314 -164.026205451 c 0,0,0
 166.509433962 -164.026205451 166.509433962 -164.026205451 165 -164 c 0
 0 -161 0 -161 0 60 c 0
 0 120 0 120 60 120 c 0
 120 120 120 120 120 60 c 0
 120 -44 120 -44 168 -44 c 0
 333 -44 333 -44 333 780 c 1
 334 780 l 1
EndSplineSet
Validated: 524291
EndChar

StartChar: s
Encoding: 115 115 97
Width: 582
Flags: HW
LayerCount: 3
Fore
SplineSet
474 147 m 25,0,-1
 454 167 l 25,2,-1
 454 127 l 25,3,-1
 434 147 l 25,4,-1
 474 147 l 1049,5,-1
80 331 m 25,0,-1
 60 351 l 25,2,-1
 60 311 l 25,3,-1
 40 331 l 25,4,-1
 80 331 l 1049,5,-1
331 62 m 25,0,-1
 311 82 l 25,2,-1
 311 42 l 25,3,-1
 291 62 l 25,4,-1
 331 62 l 1049,5,-1
290.633789062 61.4462890625 m 25,0,-1
 270.633789062 81.4462890625 l 25,2,-1
 270.633789062 41.4462890625 l 25,3,-1
 250.633789062 61.4462890625 l 25,4,-1
 290.633789062 61.4462890625 l 1049,5,-1
542 331 m 25,0,-1
 522 351 l 25,2,-1
 522 311 l 25,3,-1
 502 331 l 25,4,-1
 542 331 l 1049,5,-1
107 463 m 25,0,-1
 87 483 l 25,2,-1
 87 443 l 25,3,-1
 67 463 l 25,4,-1
 107 463 l 1049,5,-1
510 200 m 25,0,-1
 490 220 l 25,2,-1
 490 180 l 25,3,-1
 470 200 l 25,4,-1
 510 200 l 1049,5,-1
145 527 m 25,0,-1
 125 547 l 25,2,-1
 125 507 l 25,3,-1
 105 527 l 25,4,-1
 145 527 l 1049,5,-1
330 612 m 25,0,-1
 310 632 l 25,2,-1
 310 592 l 25,3,-1
 290 612 l 25,4,-1
 330 612 l 1049,5,-1
295 612 m 25,0,-1
 275 632 l 25,2,-1
 275 592 l 25,3,-1
 255 612 l 25,4,-1
 295 612 l 1049,5,-1
165 473 m 0
 123.506143521 400.385751162 123.506143521 400.385751162 123.506143521 331.781646842 c 0,0,0
 123.506143521 260.740784719 123.506143521 260.740784719 168 194 c 0
 213.669064748 125.496402878 213.669064748 125.496402878 289.400859169 125.496402878 c 0,0,0
 289.949640288 125.496402878 289.949640288 125.496402878 290.5 125.5 c 0
 367 126 367 126 413.5 197.5 c 0
 458.082474227 266.051546392 458.082474227 266.051546392 458.082474227 338.739611011 c 0,0,0
 458.082474227 341.865979381 458.082474227 341.865979381 458 345 c 0
 456 421 456 421 416 485 c 0
 376 549 376 549 292.5 549 c 0
 209 549 209 549 165 473 c 0
100.346679688 588.369140625 m 0
 197.731035097 675.54965894 197.731035097 675.54965894 292.574540956 675.54965894 c 0,0,0
 387.418046816 675.54965894 387.418046816 675.54965894 479.720703125 588.369140625 c 0
 582.46736024 491.559645929 582.46736024 491.559645929 582.46736024 343.388024821 c 0,0,0
 582.46736024 181.310551023 582.46736024 181.310551023 496.965820312 101 c 0
 494.337046254 98.5408740679 494.337046254 98.5408740679 490.011834023 94.7532525077 c 0
 485.686621792 90.9656309475 485.686621792 90.9656309475 479.720703125 85.6298828125 c 0
 386.255593299 1.13508772073 386.255593299 1.13508772073 291.412087439 1.13508772073 c 0,0,0
 196.56858158 1.13508772073 196.56858158 1.13508772073 100.346679688 85.6298828125 c 0
 -3.18953456046e-06 174.000002809 -3.18953456046e-06 174.000002809 0 331 c 0
 0 331.154479483 0 331.154479483 0.000483937039559 331.308593698 c 0
 0.000483937039559 331.65413002 0.000483937039559 331.65413002 0 332 c 0
 0 489.99997331 0 489.99997331 81 571 c 0
 84.5943403443 574.594340344 84.5943403443 574.594340344 89.4941255186 578.801299918 c 0
 94.3939106929 583.008259492 94.3939106929 583.008259492 100.346679688 588.369140625 c 0
EndSplineSet
Validated: 526371
EndChar

StartChar: z
Encoding: 122 122 98
Width: 449
Flags: HW
LayerCount: 3
Fore
SplineSet
287.793945312 69.837890625 m 25,0,-1
 267.793945312 89.837890625 l 25,2,-1
 267.793945312 49.837890625 l 25,3,-1
 247.793945312 69.837890625 l 25,4,-1
 287.793945312 69.837890625 l 1049,5,-1
207 68 m 25,0,-1
 187 88 l 25,2,-1
 187 48 l 25,3,-1
 167 68 l 25,4,-1
 207 68 l 1049,5,-1
281 414 m 25,0,-1
 261 434 l 25,2,-1
 261 394 l 25,3,-1
 241 414 l 25,4,-1
 281 414 l 1049,5,-1
200 412 m 25,0,-1
 180 432 l 25,2,-1
 180 392 l 25,3,-1
 160 412 l 25,4,-1
 200 412 l 1049,5,-1
72 416 m 0
 144 481 144 481 224 481 c 0
 304 481 304 481 355 434 c 0
 448.595038602 347.745748739 448.595038602 347.745748739 449.37109375 239 c 0
 449 189 449 189 426 138 c 0
 390.625483652 59.5608550554 390.625483652 59.5608550554 300.793945312 15.837890625 c 0
 268 0 268 0 223.471679688 0.048828125 c 0
 149.311394922 -0.0325969005444 149.311394922 -0.0325969005444 95.1556974611 45.4837015497 c 0
 0 125.459314974 0 125.459314974 0 238.229657487 c 0
 0 351 0 351 72 416 c 0
146.5 162.5 m 0
 178 128 178 128 227 128 c 0
 276 128 276 128 303.5 161 c 0
 331 194 331 194 331 229 c 0
 331 264 331 264 304 309.5 c 0
 277 355 277 355 228 355 c 0
 179 355 179 355 147 312.5 c 0
 115 270 115 270 115 233.5 c 0
 115 197 115 197 146.5 162.5 c 0
EndSplineSet
Validated: 524323
EndChar

StartChar: l
Encoding: 108 108 99
Width: 266
Flags: HW
LayerCount: 3
Fore
SplineSet
179 221 m 25,0,-1
 159 241 l 25,2,-1
 159 201 l 25,3,-1
 139 221 l 25,4,-1
 179 221 l 1049,5,-1
125 221 m 25,0,-1
 105 241 l 25,2,-1
 105 201 l 25,3,-1
 85 221 l 25,4,-1
 125 221 l 1049,5,-1
178 69 m 25,0,-1
 158 89 l 25,2,-1
 158 49 l 25,3,-1
 138 69 l 25,4,-1
 178 69 l 1049,5,-1
128 68 m 25,0,-1
 108 88 l 25,2,-1
 108 48 l 25,3,-1
 88 68 l 25,4,-1
 128 68 l 1049,5,-1
76.6935872996 14.1098882747 m 0
 0 50.6926623418 0 50.6926623418 0 162.600097656 c 0
 0 214.200195312 0 214.200195312 42.8002929688 253.000488281 c 0
 85.6005859375 291.80078125 85.6005859375 291.80078125 133.200195312 291.80078125 c 0
 180.799804688 291.80078125 180.799804688 291.80078125 223.600097656 252.200683594 c 0
 266.400390625 212.600585938 266.400390625 212.600585938 266.400390625 162.200683594 c 0
 266.400390625 51.7264199996 266.400390625 51.7264199996 189.230453217 15.0737320639 c 0
 160.317232763 -0.545735705145 160.317232763 -0.545735705145 131.740330496 -0.545735705145 c 0,0,0
 104.05917654 -0.545735705145 104.05917654 -0.545735705145 76.6935872996 14.1098882747 c 0
EndSplineSet
Validated: 524291
EndChar

StartChar: p
Encoding: 112 112 100
Width: 459
Flags: HW
LayerCount: 3
Fore
SplineSet
80 900 m 25,0,-1
 60 920 l 25,2,-1
 60 880 l 25,3,-1
 40 900 l 25,4,-1
 80 900 l 1049,5,-1
80 60 m 25,0,-1
 60 80 l 25,2,-1
 60 40 l 25,3,-1
 40 60 l 25,4,-1
 80 60 l 1049,5,-1
0 60 m 1029
80 821 m 25,0,-1
 60 841 l 25,2,-1
 60 801 l 25,3,-1
 40 821 l 25,4,-1
 80 821 l 1049,5,-1
80 901 m 25,0,-1
 60 921 l 25,2,-1
 60 881 l 25,3,-1
 40 901 l 25,4,-1
 80 901 l 1049,5,-1
120 985 m 1
 332 1171 332 1171 332 1419 c 0
 332 1625 332 1625 234 1625 c 0
 120 1625 120 1625 120 1419 c 2
 120 985 l 1
0 60 m 2
 0 1419 l 2
 0 1744 0 1744 234.5 1744 c 0
 459.004415011 1744 459.004415011 1744 459.004415011 1422.85461164 c 0,0,0
 459.004415011 1159.9330956 459.004415011 1159.9330956 120 845 c 1
 120 60 l 2
 120 0 120 0 60 0 c 0
 0 0 0 0 0 60 c 2
EndSplineSet
Validated: 524291
EndChar

StartChar: b
Encoding: 98 98 101
Width: 465
Flags: HW
LayerCount: 3
Fore
SplineSet
80 640 m 25,0,-1
 60 660 l 25,2,-1
 60 620 l 25,3,-1
 40 640 l 25,4,-1
 80 640 l 1049,5,-1
81 60 m 25,0,-1
 61 80 l 25,2,-1
 61 40 l 25,3,-1
 41 60 l 25,4,-1
 81 60 l 1049,5,-1
1 60 m 1025
81 719 m 25,0,-1
 61 739 l 25,2,-1
 61 699 l 25,3,-1
 41 719 l 25,4,-1
 81 719 l 1049,5,-1
81 640 m 25,0,-1
 61 660 l 25,2,-1
 61 620 l 25,3,-1
 41 640 l 25,4,-1
 81 640 l 1049,5,-1
121 803 m 1
 206 880 206 880 268 972 c 0
 335.5437376 1074.15990312 335.5437376 1074.15990312 335.5437376 1133.10406606 c 0,0,0
 335.5437376 1213.50103093 335.5437376 1213.50103093 209.887866006 1213.50103093 c 0,0,0
 209.437902706 1213.50103093 209.437902706 1213.50103093 208.986328125 1213.5 c 0
 121 1213 121 1213 121 1007 c 2
 121 803 l 1
1 626.28434649 m 1
 -1.1238001735 639.976248916 -1.1238001735 639.976248916 1 653.25 c 1
 1 1003 l 2
 1 1334.003003 1 1334.003003 207.7526265 1334.003003 c 0,0,0
 208.375375375 1334.003003 208.375375375 1334.003003 209 1334 c 0
 465.805555556 1333.40277778 465.805555556 1333.40277778 465.805555556 1183.00231481 c 0,0,0
 465.805555556 1081.56944444 465.805555556 1081.56944444 349 912 c 0
 252 774 252 774 121 663 c 1
 121 647.383394888 121 647.383394888 120.999999999 643.888781898 c 2
 121 640 l 2
 121 639.759315089 121 639.759315089 120.998905429 639.519531308 c 0
 120.998905429 639.260321118 120.998905429 639.260321118 121 639 c 2
 121 60 l 2
 121 0 121 0 61 0 c 0
 1 0 1 0 1 60 c 2
 1 626.28434649 l 1
EndSplineSet
Validated: 524291
EndChar

StartChar: c
Encoding: 99 99 102
Width: 20
Flags: HW
LayerCount: 3
Back
SplineSet
120 899 m 5,0,-1
 120 60 l 5,1,2
 120 0 120 0 60 0 c 5,3,4
 0 0 0 0 0 60 c 5,5,-1
 0 899 l 5,6,7
 0 960 0 960 60 960 c 4,8,9
 120 960 120 960 120 899 c 5,0,-1
0 60 m 1029
EndSplineSet
Refer: 46 57346 S 1 0 0 1 0 0 2
Refer: 46 57346 S 1 0 0 1 0 840 2
Fore
Validated: 1
EndChar

StartChar: m
Encoding: 109 109 103
Width: 450
Flags: HW
LayerCount: 3
Fore
SplineSet
410 900 m 25,0,-1
 390 920 l 25,2,-1
 390 880 l 25,3,-1
 370 900 l 25,4,-1
 410 900 l 1049,5,-1
410 60 m 25,0,-1
 390 80 l 25,2,-1
 390 40 l 25,3,-1
 370 60 l 25,4,-1
 410 60 l 1049,5,-1
330 60 m 1029
40 935.994140625 m 25,0,-1
 60 915.994140625 l 25,2,-1
 60 955.994140625 l 25,3,-1
 80 935.994140625 l 25,4,-1
 40 935.994140625 l 1049,5,-1
370 899.994140625 m 25,0,-1
 390 879.994140625 l 25,2,-1
 390 919.994140625 l 25,3,-1
 410 899.994140625 l 25,4,-1
 370 899.994140625 l 1049,5,-1
115.02664908 908.502738403 m 1
 101.418297779 875.994140625 101.418297779 875.994140625 60 875.994140625 c 0
 0 875.994140625 0 875.994140625 0 935.994140625 c 0
 0 953.132546469 0 953.132546469 5.55929295544 965.701897459 c 1
 5 965.994140625 l 1
 82 1099.99414062 82 1099.99414062 215 1099.99414062 c 0
 216.415662651 1100.00016472 216.415662651 1100.00016472 217.822797213 1100.00016472 c 0,0,0
 450 1100.00016472 450 1100.00016472 450 935.994140625 c 2
 450 60 l 2
 450 0 450 0 390 0 c 0
 330 0 330 0 330 60 c 2
 330 899 l 2
 330 899.260321118 330 899.260321118 330.001094571 899.519531309 c 0
 330.001094571 899.680256957 330.001094571 899.680256957 330.000119188 899.841387483 c 0
 330.000119188 899.917719358 330.000119188 899.917719358 330 900 c 2
 330 935.994140625 l 2
 330 979.994140625 330 979.994140625 214 979.994140625 c 0
 152 979.994140625 152 979.994140625 116 907.994140625 c 1
 115.02664908 908.502738403 l 1
EndSplineSet
Validated: 524291
EndChar

StartChar: n
Encoding: 110 110 104
Width: 784
Flags: HW
LayerCount: 3
Fore
SplineSet
412 105 m 25,0,-1
 392 125 l 25,2,-1
 392 85 l 25,3,-1
 372 105 l 25,4,-1
 412 105 l 1049,5,-1
744 150 m 25,0,-1
 724 170 l 25,2,-1
 724 130 l 25,3,-1
 704 150 l 25,4,-1
 744 150 l 1049,5,-1
372 104.995117188 m 25,0,-1
 392 84.9951171875 l 25,2,-1
 392 124.995117188 l 25,3,-1
 412 104.995117188 l 25,4,-1
 372 104.995117188 l 1049,5,-1
40 59.9951171875 m 25,0,-1
 60 39.9951171875 l 25,2,-1
 60 79.9951171875 l 25,3,-1
 80 59.9951171875 l 25,4,-1
 40 59.9951171875 l 1049,5,-1
667.565640753 173.761835473 m 1
 679.820448902 210 679.820448902 210 724 210 c 0
 784 210 784 210 784 150 c 0
 784 136.697159846 784 136.697159846 780.650596575 126.147117232 c 1
 781 126 l 1
 780.266914175 124.41164738 780.266914175 124.41164738 778.208190902 119.269645492 c 0
 776.149467628 114.127643604 776.149467628 114.127643604 772.420105671 109.672139566 c 0
 768.690743715 105.216635528 768.690743715 105.216635528 767 103.130859375 c 0
 692 -7 692 -7 586 -21 c 0
 552.347461781 -25.5232078844 552.347461781 -25.5232078844 522.884069474 -25.5232078844 c 0,0,0
 400.016789816 -25.5232078844 400.016789816 -25.5232078844 350 53.13671875 c 0
 346.684753973 59.6538967301 346.684753973 59.6538967301 344.133205384 63.7312232323 c 0
 341.581656795 67.8085497345 341.581656795 67.8085497345 340.594192384 69.4453575134 c 0
 303.880633585 110.026842358 303.880633585 110.026842358 245.850270874 110.026842358 c 0,0,0
 234.508564325 110.026842358 234.508564325 110.026842358 222.352587965 108.476690747 c 0
 148 98.9951171875 148 98.9951171875 117 35.9951171875 c 1
 116.434359247 36.2332817149 l 1
 104.179551098 -0.00488281249997 104.179551098 -0.00488281249997 60 -0.0048828125 c 0
 0 -0.0048828125 0 -0.0048828125 0 59.9951171875 c 0
 0 73.297957342 0 73.297957342 3.34940342489 83.847999956 c 1
 3 83.9951171875 l 1
 3.73308582459 85.5834698074 3.73308582459 85.5834698074 5.79180909829 90.7254716955 c 0
 7.85053237199 95.8674735836 7.85053237199 95.8674735836 11.5798943285 100.322977621 c 0
 15.309256285 104.778481659 15.309256285 104.778481659 17 106.864257812 c 0
 92 216.995117188 92 216.995117188 198 230.995117188 c 0
 231.652538219 235.518325072 231.652538219 235.518325072 261.115930526 235.518325072 c 0,0,0
 383.983210184 235.518325072 383.983210184 235.518325072 434 156.858398438 c 0
 437.315246027 150.341220457 437.315246027 150.341220457 439.866794616 146.263893955 c 0
 442.418343205 142.186567453 442.418343205 142.186567453 443.405807616 140.549759674 c 0
 480.119366415 99.9682748293 480.119366415 99.9682748293 538.149729126 99.9682748293 c 0,0,0
 549.491435675 99.9682748293 549.491435675 99.9682748293 561.647412035 101.518426441 c 0
 636 111 636 111 667 174 c 1
 667.565640753 173.761835473 l 1
EndSplineSet
Validated: 524291
EndChar

StartChar: o
Encoding: 111 111 105
Width: 425
Flags: HW
LayerCount: 3
Fore
SplineSet
345 838.065429688 m 25,0,-1
 365 818.065429688 l 25,2,-1
 365 858.065429688 l 25,3,-1
 385 838.065429688 l 25,4,-1
 345 838.065429688 l 1049,5,-1
40 61.0654296875 m 25,0,-1
 60 41.0654296875 l 25,2,-1
 60 81.0654296875 l 25,3,-1
 80 61.0654296875 l 25,4,-1
 40 61.0654296875 l 1049,5,-1
365 898.065429688 m 0
 425 898.065429688 425 898.065429688 425 838.065429688 c 0
 425 828.06546151 425 828.06546151 424.94140625 818.065429688 c 0
 425.000640949 199.370841397 425.000640949 199.370841397 91.94140625 7.103515625 c 1
 71.3639747174 -0.000189386022403 71.3639747174 -0.000189386022403 54.8821323264 -0.000189386022403 c 0,0,0
 22.5519231232 -0.000189386022403 22.5519231232 -0.000189386022403 5.98046875 27.3330078125 c 0
 4.52786018345 32.6697523743 4.52786018345 32.6697523743 2.26392994893 40.383536785 c 0
 -14.0314709898 95.9061000736 -14.0314709898 95.9061000736 29.8709676944 115.498885462 c 0
 35.4653571666 118.369349415 35.4653571666 118.369349415 41.06640625 122.02734375 c 0
 305 293.363759417 305 293.363759417 305 838.065429688 c 0
 305 898.065429688 305 898.065429688 365 898.065429688 c 0
EndSplineSet
Validated: 524323
EndChar

StartChar: g_l
Encoding: 57589 57589 106
Width: 355
Flags: HW
LayerCount: 3
Fore
SplineSet
179 384 m 25,0,-1
 159 404 l 25,2,-1
 159 364 l 25,3,-1
 139 384 l 25,4,-1
 179 384 l 1049,5,-1
125 384 m 25,0,-1
 105 404 l 25,2,-1
 105 364 l 25,3,-1
 85 384 l 25,4,-1
 125 384 l 1049,5,-1
178 232 m 25,0,-1
 158 252 l 25,2,-1
 158 212 l 25,3,-1
 138 232 l 25,4,-1
 178 232 l 1049,5,-1
128 231 m 25,0,-1
 108 251 l 25,2,-1
 108 211 l 25,3,-1
 88 231 l 25,4,-1
 128 231 l 1049,5,-1
130 412 m 25,38,-1
 130 372 l 25,39,-1
 110 392 l 25,40,-1
 150 392 l 1049
130 81 m 25,18,-1
 130 41 l 25,19,-1
 110 61 l 25,20,-1
 150 61 l 1049
150 900 m 25,0,-1
 130 920 l 25,2,-1
 130 880 l 25,3,-1
 110 900 l 25,4,-1
 150 900 l 1049,5,-1
150 60 m 25,0,-1
 130 80 l 25,2,-1
 130 40 l 25,3,-1
 110 60 l 25,4,-1
 150 60 l 1049,5,-1
70 60 m 1029
239.661114461 220.146276546 m 1
 222.702247232 194.667309257 222.702247232 194.667309257 190 178.447275555 c 1
 190 138.12284714 l 1
 236.518240742 168.181295636 236.518240742 168.181295636 239.661114461 220.146276546 c 1
130 960 m 0
 190.000001825 960 190.000001825 960 190 900 c 0
 190 899.75931509 190 899.75931509 189.998905429 899.519531309 c 0
 189.998905429 899.260321118 189.998905429 899.260321118 190 899 c 2
 190 445.032194131 l 1
 246.632007809 430.501486926 246.632007809 430.501486926 301.316003904 376.250743463 c 0
 356 322 356 322 356 227.5 c 0
 356 133 356 133 293.231278594 70.2337692778 c 0
 222.994722518 2.11348316626e-07 222.994722518 2.11348316626e-07 130 0 c 0
 70 0 70 0 70 60 c 2
 70 180.904544615 l 1
 0 222.780425199 0 222.780425199 0 308.660685941 c 0
 0 394.540946683 0 394.540946683 70 436.700748571 c 1
 70 899 l 2
 70 899.260321118 70 899.260321118 70.0010945712 899.519531309 c 0
 70.0010945712 899.75931509 70.0010945712 899.75931509 70 900 c 0
 70 960 70 960 130 960 c 0
EndSplineSet
Validated: 526339
EndChar

StartChar: c_i
Encoding: 57590 57590 107
Width: 542
GlyphClass: 2
Flags: HW
LayerCount: 3
Fore
SplineSet
80 638 m 25,0,-1
 60 658 l 25,2,-1
 60 618 l 25,3,-1
 40 638 l 25,4,-1
 80 638 l 1049,5,-1
410 153 m 25,0,-1
 390 173 l 25,2,-1
 390 133 l 25,3,-1
 370 153 l 25,4,-1
 410 153 l 1049,5,-1
501 403 m 25,0,-1
 481 423 l 25,2,-1
 481 383 l 25,3,-1
 461 403 l 25,4,-1
 501 403 l 1049,5,-1
210 60 m 25,0,-1
 190 80 l 25,2,-1
 190 40 l 25,3,-1
 170 60 l 25,4,-1
 210 60 l 1049,5,-1
60 578 m 0
 0 578 0 578 0 638 c 0
 0 670.455169756 0 670.455169756 21.2058359212 686.543420316 c 1
 93.8777869664 779.002317833 93.8777869664 779.002317833 216.438893483 779.501158917 c 0
 216.965954914 779.503304131 216.965954914 779.503304131 217.492626853 779.503304131 c 0,0,0
 339.436490309 779.503304131 339.436490309 779.503304131 440.5 664.5 c 0
 542 549 542 549 542 403 c 0
 542 312 542 312 507 228 c 0
 449 89 449 89 353 43.5 c 0
 261.04225788 -0.0841381920572 261.04225788 -0.0841381920572 195.815598178 -0.0841381920572 c 0,0,0
 192.948379246 -0.0841381920572 192.948379246 -0.0841381920572 190.132812413 7.883320459e-05 c 0
 190.066442904 7.883320459e-05 190.066442904 7.883320459e-05 190 0 c 0
 130 0 130 0 130 60 c 0
 130 120 130 120 190 120 c 0
 248 123 248 123 278 141.5 c 0
 308 160 308 160 346.166503906 198.166503906 c 0
 384.333007812 236.333007812 384.333007812 236.333007812 407.666503906 319.666503906 c 0
 419.546934121 362.096398721 419.546934121 362.096398721 419.546934121 404.021481265 c 0,0,0
 419.546934121 444.438429443 419.546934121 444.438429443 408.505859375 484.386230469 c 0
 386.01171875 565.772460938 386.01171875 565.772460938 346.5 595.5 c 0
 272 653 272 653 218.955728221 655.905367989 c 0
 216.520948026 656.038727016 216.520948026 656.038727016 214.07738953 656.038727016 c 0,0,0
 163.28543163 656.038727016 163.28543163 656.038727016 108.700717614 598.41957741 c 0
 105.665202622 594.350411882 105.665202622 594.350411882 103.579273209 592.454226068 c 0
 101.493343796 590.558040255 101.493343796 590.558040255 101 590 c 1
 100.865939891 590.157230991 l 1
 86.0922389902 578 86.0922389902 578 60 578 c 0
EndSplineSet
Validated: 524291
EndChar

StartChar: ij
Encoding: 307 307 108
Width: 701
Flags: HW
LayerCount: 3
Fore
SplineSet
0 1223.52636719 m 0
 0 1190.80563455 0 1190.80563455 32.701171875 1190.12695312 c 0
 186.837914617 1187.41771895 186.837914617 1187.41771895 363.126953125 1106.5390625 c 0
 486.239288332 1050.05704667 486.239288332 1050.05704667 560.04298401 939.664753804 c 0
 633.846679688 829.272460938 633.846679688 829.272460938 634.578125 673.87109375 c 2
 634.922851562 37.60546875 l 2
 634.930664062 23.783203125 634.930664062 23.783203125 644.71875 14 c 0
 654.506835938 4.216796875 654.506835938 4.216796875 668.330078125 4.216796875 c 0
 682.158203125 4.216796875 682.158203125 4.216796875 691.947265625 14.005859375 c 0
 701.737304688 23.7958984375 701.737304688 23.7958984375 701.737304688 37.6240234375 c 2
 701.391601562 673.907226562 l 1
 699.798379555 1012.39720785 699.798379555 1012.39720785 397.70703125 1163.5234375 c 0
 212.054998188 1256.39515113 212.054998188 1256.39515113 33.40625 1256.93359375 c 0
 19.578125 1256.93359375 19.578125 1256.93359375 9.7890625 1247.14355469 c 0
 0 1237.35449219 0 1237.35449219 0 1223.52636719 c 0
EndSplineSet
Validated: 524297
EndChar

StartChar: circumflex
Encoding: 710 710 110
Width: 639
Flags: HW
LayerCount: 3
Fore
SplineSet
246 2428 m 1
 393 2428 l 1
 639 2052 l 1
 500 2052 l 1
 319 2297 l 1
 139 2052 l 1
 0 2052 l 1
 246 2428 l 1
EndSplineSet
Validated: 1
EndChar

StartChar: n.TW
Encoding: 57610 57610 136
Width: 596
Flags: HW
LayerCount: 3
Fore
SplineSet
411 105 m 25,0,-1
 391 125 l 25,2,-1
 391 85 l 25,3,-1
 371 105 l 25,4,-1
 411 105 l 1049,5,-1
556 85 m 25,0,-1
 536 105 l 25,2,-1
 536 65 l 25,3,-1
 516 85 l 25,4,-1
 556 85 l 1049,5,-1
372 104.995117188 m 25,0,-1
 392 84.9951171875 l 25,2,-1
 392 124.995117188 l 25,3,-1
 412 104.995117188 l 25,4,-1
 372 104.995117188 l 1049,5,-1
40 59.9951171875 m 25,0,-1
 60 39.9951171875 l 25,2,-1
 60 79.9951171875 l 25,3,-1
 80 59.9951171875 l 25,4,-1
 40 59.9951171875 l 1049,5,-1
116.434359247 36.2332817149 m 1
 104.179551098 -0.00488281249997 104.179551098 -0.00488281249997 60 -0.0048828125 c 0
 0 -0.0048828125 0 -0.0048828125 0 59.9951171875 c 0
 0 73.297957342 0 73.297957342 3.34940342489 83.847999956 c 1
 3 83.9951171875 l 1
 3.73308582459 85.5834698074 3.73308582459 85.5834698074 5.79180909829 90.7254716955 c 0
 7.85053237199 95.8674735836 7.85053237199 95.8674735836 11.5798943285 100.322977621 c 0
 15.309256285 104.778481659 15.309256285 104.778481659 17 106.864257812 c 0
 92 216.995117188 92 216.995117188 198 230.995117188 c 0
 231.652538219 235.518325072 231.652538219 235.518325072 261.115930526 235.518325072 c 0,0,0
 383.983210184 235.518325072 383.983210184 235.518325072 434 156.858398438 c 0
 437.315246027 150.341220457 437.315246027 150.341220457 440.32971222 145.614855393 c 0
 443.344178413 140.888490329 443.344178413 140.888490329 444.986408791 137.730819917 c 0
 468.708477955 116.51263267 468.708477955 116.51263267 487.182259684 128.367086931 c 0
 514.17675479 145.689203876 514.17675479 145.689203876 526.78911489 145.334948846 c 0
 539.401474991 144.980693815 539.401474991 144.980693815 547.314230274 145.413318728 c 0
 596.069202189 148.078966124 596.069202189 148.078966124 596.069202189 83.7034222973 c 0,0,0
 596.069202189 11.1900002107 596.069202189 11.1900002107 458.580722996 11.1900002107 c 0,0,0
 457.792620254 11.1900002107 457.792620254 11.1900002107 457 11.1923828125 c 0
 369.969489938 11.0595004768 369.969489938 11.0595004768 338.052119002 72.1903587723 c 1
 302.238730418 109.960153811 302.238730418 109.960153811 245.612094525 109.960153811 c 0,0,0
 233.964388982 109.960153811 233.964388982 109.960153811 221.436082614 108.3621277 c 0
 148 98.9951171875 148 98.9951171875 117 35.9951171875 c 1
 116.434359247 36.2332817149 l 1
EndSplineSet
Validated: 524323
EndChar

StartChar: n.TWe
Encoding: 57611 57611 137
Width: 574
Flags: HW
LayerCount: 3
Fore
SplineSet
534 6 m 25,0,-1
 514 26 l 25,2,-1
 514 -14 l 25,3,-1
 494 6 l 25,4,-1
 534 6 l 1049,5,-1
412 106 m 25,0,-1
 392 126 l 25,2,-1
 392 86 l 25,3,-1
 372 106 l 25,4,-1
 412 106 l 1049,5,-1
372 104.995117188 m 25,0,-1
 392 84.9951171875 l 25,2,-1
 392 124.995117188 l 25,3,-1
 412 104.995117188 l 25,4,-1
 372 104.995117188 l 1049,5,-1
40 59.9951171875 m 25,0,-1
 60 39.9951171875 l 25,2,-1
 60 79.9951171875 l 25,3,-1
 80 59.9951171875 l 25,4,-1
 40 59.9951171875 l 1049,5,-1
116.434359247 36.2332817149 m 1
 104.179551098 -0.00488281249997 104.179551098 -0.00488281249997 60 -0.0048828125 c 0
 0 -0.0048828125 0 -0.0048828125 0 59.9951171875 c 0
 0 73.297957342 0 73.297957342 3.34940342489 83.847999956 c 1
 3 83.9951171875 l 1
 3.73308582459 85.5834698074 3.73308582459 85.5834698074 5.79180909829 90.7254716955 c 0
 7.85053237199 95.8674735836 7.85053237199 95.8674735836 11.5798943285 100.322977621 c 0
 15.309256285 104.778481659 15.309256285 104.778481659 17 106.864257812 c 0
 92 216.995117188 92 216.995117188 198 230.995117188 c 0
 231.652538219 235.518325072 231.652538219 235.518325072 261.115930526 235.518325072 c 0,0,0
 383.983210184 235.518325072 383.983210184 235.518325072 434 156.858398438 c 0
 437.290399114 150.390065022 437.290399114 150.390065022 444.645198938 139.666561199 c 0
 451.999998762 128.943057376 451.999998762 128.943057376 452 106 c 2
 452.001365589 104.991503758 l 0
 461.000910266 76.9989379539 461.000910266 76.9989379539 472.500455133 71.499468977 c 0
 484 66 484 66 508 66 c 2
 514 66 l 2
 574 66 574 66 574 6 c 0
 574 -54 574 -54 514 -54 c 0
 511.831331053 -54 511.831331053 -54 509.740852638 -53.916015625 c 2
 507.623046875 -53.916015625 l 1
 364.599541287 -46.8017696199 364.599541287 -46.8017696199 336.505004252 73.7987415734 c 1
 301.252764163 109.921525788 301.252764163 109.921525788 245.488449638 109.921525788 c 0,0,0
 233.648566578 109.921525788 233.648566578 109.921525788 220.884003072 108.293117491 c 0
 148 98.9951171875 148 98.9951171875 117 35.9951171875 c 1
 116.434359247 36.2332817149 l 1
EndSplineSet
Validated: 524291
EndChar

StartChar: gorTWE
Encoding: 57554 57554 138
Width: 242
Flags: HW
LayerCount: 3
Fore
SplineSet
40 180 m 25,0,-1
 60 160 l 25,2,-1
 60 200 l 25,3,-1
 80 180 l 25,4,-1
 40 180 l 1049,5,-1
162 80 m 25,0,-1
 182 60 l 25,2,-1
 182 100 l 25,3,-1
 202 80 l 25,4,-1
 162 80 l 1049,5,-1
242 80 m 2
 242 20 242 20 182 20 c 0
 122 20 122 20 122 80 c 2
 122 81 l 1
 113 109 113 109 101.5 114.5 c 0
 90 120 90 120 66 120 c 2
 60 120 l 2
 0 120 0 120 0 180 c 0
 0 240 0 240 60 240 c 0
 62.1686689466 240 62.1686689466 240 64.2591473622 239.916015625 c 2
 66.376953125 239.916015625 l 1
 125 237 125 237 164 212 c 0
 235.405307836 168.79099481 235.405307836 168.79099481 242 82.349609375 c 1
 242 80 l 2
EndSplineSet
Validated: 524291
EndChar

StartChar: a
Encoding: 97 97 139
Width: 545
Flags: HW
LayerCount: 3
Fore
SplineSet
500.262695312 779.73046875 m 25,0,-1
 492.942382812 807.05078125 l 25,2,-1
 472.942382812 772.41015625 l 25,3,-1
 465.622070312 799.73046875 l 25,4,-1
 500.262695312 779.73046875 l 1049,5,-1
80.2626953125 52.26953125 m 25,0,-1
 72.9423828125 79.58984375 l 25,2,-1
 52.9423828125 44.94921875 l 25,3,-1
 45.6220703125 72.26953125 l 25,4,-1
 80.2626953125 52.26953125 l 1049,5,-1
10.9814453125 92.26953125 m 1029
430.481445312 818.864257812 m 2
 449.934311227 852.557354049 449.934311227 852.557354049 478.117501462 852.557354049 c 0,0,0
 494.12250534 852.557354049 494.12250534 852.557354049 512.943048821 841.691291878 c 0
 545.685441337 822.787434342 545.685441337 822.787434342 545.685441337 794.819820632 c 0,0,0
 545.685441337 778.403463647 545.685441337 778.403463647 534.404296875 758.864257812 c 2
 114.904296875 32.26953125 l 2
 95.8850067607 -0.673092698237 95.8850067607 -0.673092698237 68.0386524616 -0.673092698237 c 0,0,0
 51.9616729268 -0.673092698237 51.9616729268 -0.673092698237 32.9423828125 10.3076171875 c 0
 0.000604591882329 29.3267764669 0.000604591882329 29.3267764669 0.000604591882329 57.1728784877 c 0,0,0
 0.000604591882329 73.2500145214 0.000604591882329 73.2500145214 10.9814453125 92.26953125 c 2
 430.481445312 818.864257812 l 2
EndSplineSet
Validated: 524291
EndChar
